<svg id="SvgjsSvg1001" width="288" height="288" xmlns="http://www.w3.org/2000/svg" version="1.1" xmlns:xlink="http://www.w3.org/1999/xlink" xmlns:svgjs="http://svgjs.com/svgjs"><defs id="SvgjsDefs1002"></defs><g id="SvgjsG1008" transform="matrix(1,0,0,1,0,0)"><svg xmlns="http://www.w3.org/2000/svg" data-name="LEFT LEG" viewBox="0 0 1600 1400" width="288" height="288"><polygon fill="#ffffff" points="552.13 745.9 564.58 792.61 591.93 788.21 585.07 740.29 552.13 745.9" class="colorfff svgShape"></polygon><path fill="#262424" d="M564.58,794.29A1.68,1.68,0,0,1,563,793L550.5,746.33a1.68,1.68,0,0,1,1.34-2.09l32.94-5.61a1.68,1.68,0,0,1,1.95,1.42L593.59,788a1.68,1.68,0,0,1-1.4,1.9l-27.35,4.39Zm-10.36-47,11.59,43.46L590,786.82l-6.39-44.58Z" class="color262424 svgShape"></path><path fill="#62d0b1" d="M676.52,851.26l0.91,8.7L569.89,871.17s-0.82-4.5-2-12.11a596.7,596.7,0,0,1-6.56-68.25l38.85-9.61s20.37,26.18,56.25,49.23c3.11,2,6.1,4.3,9.35,6.28C672.08,840.5,675.93,845.6,676.52,851.26Z" class="color88c0c2 svgShape"></path><path fill="#262424" d="M623.26,834.62a1.67,1.67,0,0,1-1.08-.39c-25.86-21.76-38.46-40.76-38.59-40.95a1.68,1.68,0,1,1,2.81-1.84c0.12,0.19,12.49,18.81,37.94,40.22A1.68,1.68,0,0,1,623.26,834.62Z" class="color262424 svgShape"></path><ellipse cx="582.76" cy="829.57" fill="#ffffff" rx="9.6" ry="10.69" transform="rotate(-5.96 582.27 828.893)" class="colorfff svgShape"></ellipse><path fill="#262424" d="M583,841.92c-5.75,0-10.76-4.8-11.42-11.19a12.93,12.93,0,0,1,2.32-9,10.73,10.73,0,0,1,7.61-4.5c6.18-.63,11.79,4.35,12.5,11.13a12.93,12.93,0,0,1-2.32,9,10.73,10.73,0,0,1-7.61,4.5A10.53,10.53,0,0,1,583,841.92Zm-0.41-21.35a7.05,7.05,0,0,0-.73,0,7.41,7.41,0,0,0-5.24,3.13,9.58,9.58,0,0,0-1.7,6.65c0.52,4.94,4.46,8.59,8.81,8.14a7.41,7.41,0,0,0,5.24-3.13,9.58,9.58,0,0,0,1.7-6.65C590.15,824.08,586.6,820.57,582.55,820.57Z" class="color262424 svgShape"></path><path fill="#ffffff" d="M676.52,851.26l0.91,8.7L569.89,871.17s-0.82-4.5-2-12.11l56.77-5.92s1-25.67,31.77-22.71c3,2.19,6.1,4.3,9.35,6.28C672.08,840.5,675.93,845.6,676.52,851.26Z" class="colorfff svgShape"></path><path fill="#262424" d="M569.89,872.85a1.68,1.68,0,0,1-1.65-1.38s-0.84-4.62-2-12.16a1.68,1.68,0,0,1,1.49-1.92l55.41-5.78a27,27,0,0,1,8.6-16.54c6-5.21,14.32-7.33,24.88-6.32a1.66,1.66,0,0,1,.83.32c3.06,2.25,6.17,4.34,9.23,6.19,6.77,4.11,10.85,9.72,11.49,15.8h0l0.91,8.7a1.68,1.68,0,0,1-1.5,1.84L570.06,872.85h-0.18Zm0-12.3c0.62,4.07,1.12,7.09,1.41,8.78l104.31-10.88-0.73-7h0c-0.52-5-4-9.73-9.89-13.28-3-1.83-6.08-3.87-9.1-6.08-9.38-.82-16.74,1-21.89,5.54-7.15,6.25-7.59,15.51-7.59,15.6a1.68,1.68,0,0,1-1.5,1.61Z" class="color262424 svgShape"></path><path fill="#62d0b1" d="M597.93,758s-34.42,13.14-53.24,4.36L509.46,639.47S382.1,568,368.26,549.8,326.35,428.29,388,424.25s67.49,29.35,67.49,29.35L463.63,495s63.33,65.18,91.05,93.1c8.91,9,15.33,16.33,16.74,20.1,1.16,3.1,2.79,10.41,4.67,20.15C583.63,667.31,597.93,758,597.93,758Z" class="color87bfc1 svgShape"></path><path fill="#ffffff" d="M576.09,628.31a22.61,22.61,0,0,1-6,1.46,22.95,22.95,0,0,1-15.41-41.72c8.91,9,15.33,16.33,16.74,20.1C572.58,611.25,574.21,618.56,576.09,628.31Z" class="colorfff svgShape"></path><path fill="#262424" d="M563 752a66.37 66.37 0 01-16.89-2 1.68 1.68 0 01.92-3.23c.22.06 21.83 6 43.45-4a1.68 1.68 0 111.41 3A68.8 68.8 0 01563 752zM554.89 741.67a1.68 1.68 0 01-1.62-1.23L522.44 630.1 381 542.65a1.68 1.68 0 01-.74-1l-13.47-49.1a1.68 1.68 0 013.24-.89l13.3 48.47 141.43 87.45a1.68 1.68 0 01.73 1l31 111A1.68 1.68 0 01554.89 741.67z" class="color262424 svgShape"></path><path fill="#262424" d="M378.07,529a1.68,1.68,0,0,1-1.12-2.93c5.52-5,10.28-10.36,10.38-11.8-0.09-2.14-3.72-15.37-6-23.21a1.68,1.68,0,1,1,3.23-.93c0.61,2.11,6,20.75,6.11,24,0.15,3.57-8,11.28-11.5,14.42A1.68,1.68,0,0,1,378.07,529Z" class="color262424 svgShape"></path><polygon fill="#ffffff" points="397.61 777.86 395.3 826.14 422.69 830.26 430.7 782.51 397.61 777.86" class="colorfff svgShape"></polygon><path fill="#262424" d="M422.69,831.94l-0.25,0L395,827.8a1.68,1.68,0,0,1-1.43-1.74l2.32-48.29a1.68,1.68,0,0,1,1.91-1.58l33.09,4.66a1.68,1.68,0,0,1,1.42,1.94l-8,47.75A1.68,1.68,0,0,1,422.69,831.94ZM397,824.71l24.26,3.65,7.45-44.42-29.56-4.16Z" class="color262424 svgShape"></path><path fill="#62d0b1" d="M484.14,916l-1.78,8.57-105.87-22s0.58-4.54,1.81-12.13a596.7,596.7,0,0,1,14.48-67l39.94,2.64s11.46,31.13,38.65,64c2.36,2.85,4.5,6,7,8.82C483.18,904.42,485.3,910.45,484.14,916Z" class="color88c0c2 svgShape"></path><path fill="#262424" d="M439,884.07a1.68,1.68,0,0,1-1.42-.78c-18-28.58-24.27-50.51-24.33-50.73a1.68,1.68,0,0,1,3.24-.9c0.06,0.21,6.19,21.71,23.94,49.84A1.68,1.68,0,0,1,439,884.07Z" class="color262424 svgShape"></path><ellipse cx="401.39" cy="866.88" fill="#ffffff" rx="10.69" ry="9.6" transform="rotate(-78.28 401.382 866.873)" class="colorfff svgShape"></ellipse><path fill="#262424" d="M401,879.21a10.41,10.41,0,0,1-2.13-.22,10.73,10.73,0,0,1-7.12-5.24,13.24,13.24,0,0,1,3.53-17A10.6,10.6,0,0,1,411,860a12.93,12.93,0,0,1,1.41,9.16h0A12.93,12.93,0,0,1,407.5,877,10.92,10.92,0,0,1,401,879.21Zm0.78-21.29a7.6,7.6,0,0,0-4.51,1.54,9.88,9.88,0,0,0-2.61,12.6,7.25,7.25,0,0,0,10.85,2.25,9.57,9.57,0,0,0,3.64-5.82h0a9.58,9.58,0,0,0-1-6.78,7.42,7.42,0,0,0-4.9-3.64A7,7,0,0,0,401.79,857.91Z" class="color262424 svgShape"></path><path fill="#ffffff" d="M484.14,916l-1.78,8.57-105.87-22s0.58-4.54,1.81-12.13l55.89,11.6s8.74-24.16,37.17-12c2.17,3,4.5,6,7,8.82C483.18,904.42,485.3,910.45,484.14,916Z" class="colorfff svgShape"></path><path fill="#262424" d="M482.37,926.26a1.65,1.65,0,0,1-.34,0l-105.87-22a1.68,1.68,0,0,1-1.32-1.86s0.6-4.66,1.82-12.18a1.68,1.68,0,0,1,2-1.38l54.55,11.32A27,27,0,0,1,446.41,887c7.26-3.15,15.88-2.63,25.62,1.54a1.67,1.67,0,0,1,.7.56c2.24,3.08,4.56,6,6.91,8.7,5.21,6,7.39,12.56,6.15,18.54h0L484,924.92A1.68,1.68,0,0,1,482.37,926.26Zm-104-25,102.69,21.3,1.44-6.92c1-4.94-.89-10.5-5.39-15.65-2.32-2.66-4.61-5.54-6.82-8.56-8.68-3.63-16.26-4.09-22.54-1.36-8.71,3.78-11.94,12.47-12,12.56a1.68,1.68,0,0,1-1.92,1.07l-54.17-11.24C379,896.55,378.61,899.59,378.37,901.29ZM484.14,916h0Z" class="color262424 svgShape"></path><path fill="#62d0b1" d="M437.58,803.27s-36.79,2.06-52-12l3.74-127.76S289.61,556.77,282,535.19s-3-128.49,56.91-113.63S394.27,470,394.27,470L394,528.66s36.09,64.57,54,99.58c5.76,11.25,9.65,20.22,9.84,24.23,0.16,3.31-.5,10.77-1.67,20.62C451.49,712.55,437.58,803.27,437.58,803.27Z" class="color87bfc1 svgShape"></path><path fill="#262424" d="M394,530.34a1.68,1.68,0,0,1-1.68-1.69l0.28-51.94a1.68,1.68,0,0,1,1.68-1.67h0a1.68,1.68,0,0,1,1.67,1.69l-0.26,48.16,6.68-6a10.82,10.82,0,0,0,3.62-8.15l-0.29-39.51a1.68,1.68,0,0,1,1.67-1.69h0a1.68,1.68,0,0,1,1.68,1.67l0.29,39.51a14.17,14.17,0,0,1-4.74,10.68l-9.5,8.47A1.68,1.68,0,0,1,394,530.34Z" class="color262424 svgShape"></path><path fill="#262424" d="M427.28,590.9a1.68,1.68,0,0,1-1.47-.87l-33.33-60.57a1.68,1.68,0,0,1,2.94-1.62l33.33,60.57A1.68,1.68,0,0,1,427.28,590.9Z" class="color262424 svgShape"></path><path fill="#ffffff" d="M456.15,673.09a22.61,22.61,0,0,1-6.15-.43,22.95,22.95,0,0,1-2-44.43c5.76,11.25,9.65,20.22,9.84,24.23C458,655.78,457.32,663.24,456.15,673.09Z" class="colorfff svgShape"></path><path fill="#262424" d="M427.43 790.41A71.83 71.83 0 01390.57 780a1.68 1.68 0 011.86-2.8c.19.13 19 12.38 42.6 9.41a1.68 1.68 0 01.42 3.33A64.6 64.6 0 01427.43 790.41zM402 774.75H402a1.68 1.68 0 01-1.62-1.74l4.13-114.5L296.28 532.24a1.68 1.68 0 01-.4-1.16l2.07-50.88a1.68 1.68 0 013.36.14l-2 50.22 108.2 126.27a1.68 1.68 0 01.4 1.15l-4.15 115.15A1.68 1.68 0 01402 774.75z" class="color262424 svgShape"></path><path fill="#262424" d="M298.14,518.44a1.68,1.68,0,0,1-.69-3.21c6.77-3,12.94-6.75,13.48-8.09,0.56-2.06,1.13-15.78,1.35-23.93a1.68,1.68,0,1,1,3.36.09c-0.06,2.2-.61,21.59-1.48,24.75-0.94,3.45-11,8.32-15.33,10.25A1.67,1.67,0,0,1,298.14,518.44Z" class="color262424 svgShape"></path><path fill="#ffffff" d="M605.69,206l15.88-33.67a3.84,3.84,0,0,1,4.64-2h0a3.84,3.84,0,0,1,2.51,4.78L624.16,190l27.07-22.08a3.93,3.93,0,0,1,5.35.35h0a3.93,3.93,0,0,1,.09,5.29l-14.88,16.91,15.77-9.7a6.61,6.61,0,0,1,9.31,2.51A57.74,57.74,0,0,1,673.22,203a6.61,6.61,0,0,1-3.95,6.87L634.82,224.8l-20.62,3.75Z" class="colorfff svgShape"></path><path fill="#262424" d="M614.2,230.23a1.68,1.68,0,0,1-1.57-1.09l-8.51-22.52a1.68,1.68,0,0,1,.05-1.31L620,171.65a5.52,5.52,0,0,1,10.27,4l-2.93,9.6,22.78-18.59a5.61,5.61,0,0,1,7.76,8.06l-7.48,8.5,6.23-3.83a8.34,8.34,0,0,1,6.53-.94,8.2,8.2,0,0,1,5.14,4.09,59.64,59.64,0,0,1,6.54,20.29,8.32,8.32,0,0,1-4.95,8.62l-34.45,14.92a1.69,1.69,0,0,1-.37.11L614.5,230.2Zm-6.68-24.13,7.76,20.54,19.06-3.47,34.27-14.84a5,5,0,0,0,2.95-5.12,56.27,56.27,0,0,0-6.17-19.13,4.94,4.94,0,0,0-6.94-1.87l-15.77,9.7a1.68,1.68,0,0,1-2.14-2.54l14.88-16.91a2.25,2.25,0,0,0-3.12-3.23l-27.07,22.08a1.68,1.68,0,0,1-2.67-1.79l4.55-14.89a2.16,2.16,0,0,0-4-1.55Z" class="color262424 svgShape"></path><path fill="#173753" d="M618.93,234.23s-32.92,26-55.22,41.64C555,282,548,286.52,545.08,287.38c-1.78.54-8.94,1.09-18.75,1.59-26.67,1.35-72.94,2.25-84.22,1.08-15.43-1.58-39.15-4.07-43.85-20.4s6.12-41.09,19.62-42c14.75-1,113.24,3.29,113.24,3.29l72.2-28.65C617.64,209.32,618.93,234.23,618.93,234.23Z" class="colorde9244 svgShape"></path><path fill="#ffffff" d="M563.71,275.87C555,282,548,286.52,545.08,287.38c-1.78.54-8.94,1.09-18.75,1.59A20.36,20.36,0,0,1,563.71,275.87Z" class="colorfff svgShape"></path><path fill="#262424" d="M608.62 237.41h-.11a1.68 1.68 0 01-1.57-1.78c1.11-17.73-9.84-26.12-10-26.2a1.68 1.68 0 112-2.69c.51.38 12.52 9.58 11.3 29.11A1.68 1.68 0 01608.62 237.41zM542 264a1.68 1.68 0 01-1.68-1.6 53.28 53.28 0 00-9-26.61 1.68 1.68 0 012.7-2 55.92 55.92 0 019.62 28.45 1.68 1.68 0 01-1.6 1.76H542z" class="color262424 svgShape"></path><path fill="#173753" d="M461.82,316.77c-1.06-47.49,1.47-101.5-74.33-90.56,0,0-47.58,3.46-64.48,23.59-8,9.58-39,114.93-46.17,213.78,0,0,4.7,4.65,16.05,10.17,1.44-8.37,4.35-22.13,7.84-21.62S303.55,469,302.84,478a190.12,190.12,0,0,0,36.84,9.74c46.26,7.78,122.07-15.88,122.07-15.88S462.87,364.26,461.82,316.77Z" class="colorde9244 svgShape"></path><path fill="#262424" d="M460.83,287.85a1.68,1.68,0,0,1-1.67-1.56c-1.46-21.06-5.64-44-25.57-54.16a1.68,1.68,0,0,1,1.53-3c21.42,10.95,25.87,34.91,27.39,56.92a1.68,1.68,0,0,1-1.56,1.79h-0.12Z" class="color262424 svgShape"></path><path fill="#ffffff" d="M365.37,234.77c3.24,14,23.88,23.52,30.09,26.78,3.38-9,10.16-19.82,10.16-19.82a55.31,55.31,0,0,1,4.81,22.43c8.94-7.4,11.38-19.65,11.38-19.65C422.7,228,411,213.28,399,211.52,372.47,207.64,365.37,234.77,365.37,234.77Z" class="colorfff svgShape"></path><path fill="#262424" d="M410.43,265.84a1.68,1.68,0,0,1-1.68-1.72,55.31,55.31,0,0,0-3.38-18.71A121.72,121.72,0,0,0,397,262.15a1.68,1.68,0,0,1-2.35.9l-1.7-.87c-7.81-4-26.08-13.32-29.24-27a1.68,1.68,0,0,1,0-.8c0.08-.29,7.8-28.54,35.49-24.48,12.25,1.79,25.22,16.5,24.25,34.74a1.71,1.71,0,0,1,0,.24c-0.1.52-2.67,12.92-12,20.62A1.68,1.68,0,0,1,410.43,265.84Zm-4.81-25.79h0.09a1.68,1.68,0,0,1,1.42.95A56.26,56.26,0,0,1,412,260.35c5.88-6.49,7.92-15,8.16-16.06,0.78-15.9-10.62-29.53-21.39-31.1-23.3-3.41-30.65,18.27-31.64,21.62,3.1,12,20.09,20.65,27.4,24.38l0.07,0a143.06,143.06,0,0,1,9.62-18.37A1.68,1.68,0,0,1,405.62,240.05Z" class="color262424 svgShape"></path><path fill="#ffffff" d="M389.47,176.14L387,192.43l-4.3,27.86c8.15,8.21,17.09,10.54,27,5.56l1.05-13.11,1.6-19.86Z" class="colorfff svgShape"></path><path fill="#262424" d="M399.53 230.14c-6.29 0-12.34-2.89-18.06-8.67A1.68 1.68 0 01381 220l6.81-44.15a1.68 1.68 0 012.65-1.1l22.88 16.73A1.68 1.68 0 01414 193l-2.65 33a1.68 1.68 0 01-.92 1.37A24.25 24.25 0 01399.53 230.14zM384.45 219.7c7.51 7.26 15.26 8.91 23.65 5.06l2.5-31.08-19.89-14.55zM373 479.83A221.58 221.58 0 01312.88 471a1.68 1.68 0 111-3.2A217.94 217.94 0 00375 476.46c32.59-.38 81.71-14.56 82.2-14.7a1.68 1.68 0 01.94 3.23c-.5.14-50 14.45-83.1 14.83h-2z" class="color262424 svgShape"></path><path fill="#ffffff" stroke="#262424" stroke-linecap="round" stroke-linejoin="round" stroke-width="3.36" d="M551.93,353.93l36.13-19.87a4.25,4.25,0,0,1,5.48,1.2h0a4.25,4.25,0,0,1-.86,5.92l-13.76,10.4,38.64-2.21a4.36,4.36,0,0,1,4.57,3.79h0a4.36,4.36,0,0,1-3.36,4.81l-24.34,5.5L614.87,365a7.33,7.33,0,0,1,6.72,8.3,64,64,0,0,1-7.11,21.81,7.32,7.32,0,0,1-8,3.6l-40.6-9-20.94-10Z" class="colorfff svgShape colorStroke262424 svgStroke"></path><path fill="#173753" d="M545.47,387.83s-46.4,1.88-76.6,1.45c-11.75-.16-21-0.68-24.2-1.78-2-.68-8.73-4.83-17.85-10.77C402,360.61,359.93,331.33,350.58,323c-12.81-11.45-32.47-29.11-26.06-46.81s32.21-32.87,44.89-24.91c13.86,8.71,99.44,76.58,99.44,76.58l83.39,21.24C560.51,364.65,545.47,387.83,545.47,387.83Z" class="colorde9244 svgShape"></path><path fill="none" stroke="#262424" stroke-linecap="round" stroke-linejoin="round" stroke-width="3.36" d="M424,374.86c-25-16.42-64.37-43.85-73.38-51.91-12.81-11.45-32.47-29.11-26.06-46.81s32.21-32.87,44.89-24.91c13.86,8.71,99.44,76.58,99.44,76.58" class="colorStroke262424 svgStroke"></path><path fill="#ffffff" d="M468.87,389.29c-11.75-.16-21-0.68-24.2-1.78-2-.68-8.73-4.83-17.85-10.77A22.56,22.56,0,0,1,468.87,389.29Z" class="colorfff svgShape"></path><path fill="none" stroke="#262424" stroke-linecap="round" stroke-linejoin="round" stroke-width="3.36" d="M543.7 350.76s4.86 15.58-8.45 31.71M467.15 334.37a56.61 56.61 0 01-8.94 28.71" class="colorStroke262424 svgStroke"></path><path fill="#ffffff" d="M444.88,187.26c-3.35,16.44-10.18,35.82-29.8,30.71-23.32-6.07-36.94-24.37-34.89-46.94s13.74-34.23,40.48-28.92a41.63,41.63,0,0,1,6.68,1.9c15.11,5.76,21.63,19.42,19.13,34.43C446,181.16,445.52,184.16,444.88,187.26Z" class="colorfff svgShape"></path><path fill="#262424" d="M421.15,220.48a25.82,25.82,0,0,1-6.5-.88,51.8,51.8,0,0,1-23.9-13.27,1.68,1.68,0,1,1,2.39-2.36,48.44,48.44,0,0,0,22.35,12.38c5.44,1.41,10,.92,13.87-1.5,8.39-5.23,11.93-18.44,13.86-27.92,0.64-3.08,1.13-6,1.59-8.75,2.48-14.91-4.45-27.39-18.07-32.58a1.68,1.68,0,1,1,1.2-3.14c15.21,5.79,22.95,19.69,20.19,36.27-0.44,2.65-1,5.74-1.61,8.88-2.06,10.09-5.89,24.18-15.37,30.1A18.54,18.54,0,0,1,421.15,220.48Z" class="color262424 svgShape"></path><path fill="#262424" d="M372.71,174.56a69.61,69.61,0,0,0,6.73,10l11.87,1.95,3.4-8.2s7.62,0.43,9.7-4.53a3,3,0,0,0,.14-0.35c0.57-1.64,2.88-9,2.92-20.69,0,0,17.41,9.89,27.23,11.94,3.53,0.74,7.84-.21,11.91-1.74,8.15-3.05,16.22-15,15.73-23.71V139.1c-0.87-12.75-8.28-4.73-8.28-4.73s-0.85-10.29-7.1-11.65-11.22,7.56-11.22,7.56A100.11,100.11,0,0,0,398.85,125c-24.83,1.26-20.44,18.72-20.44,18.72S359.84,147.67,372.71,174.56Z" class="color262424 svgShape"></path><path fill="#ffffff" d="M388.85,185a17.46,17.46,0,0,0-13.06-20.77,15.86,15.86,0,0,0-6-.18c-12,2-11.67,29.44,17.09,30.26Z" class="colorfff svgShape"></path><path fill="#262424" d="M386.88,196h0c-17.15-.48-25.49-10.38-26.13-20-0.47-7,3.24-12.7,8.82-13.62a17.6,17.6,0,0,1,6.63.19,19.13,19.13,0,0,1,14.35,22.76,1.68,1.68,0,1,1-3.29-.7,15.76,15.76,0,0,0-11.78-18.78,14.26,14.26,0,0,0-5.37-.16c-3.83.63-6.36,4.87-6,10.07,0.51,7.49,6.8,16.39,22.88,16.85A1.68,1.68,0,0,1,386.88,196Z" class="color262424 svgShape"></path><polygon fill="#ffffff" points="1132.47 672.44 1195.32 699.84 1202.99 681.67 1146.03 646.82 1132.47 672.44" class="colorfff svgShape"></polygon><path fill="#262424" d="M1195.32,701.52a1.67,1.67,0,0,1-.67-0.14L1131.8,674a1.68,1.68,0,0,1-.81-2.33L1144.55,646a1.68,1.68,0,0,1,2.36-.65l57,34.84a1.68,1.68,0,0,1,.67,2.09l-7.68,18.17A1.68,1.68,0,0,1,1195.32,701.52Zm-60.51-29.89,59.62,26,6.45-15.27-54.2-33.16Z" class="color262424 svgShape"></path><path fill="#62d0b1" d="M1175.69,502.41c-14.33,29.23-71.26,106.17-71.26,106.17L1152.78,647l-20.85,34.93s-48.14-20.15-76-34.25c-12.93-6.55-22.46-12.28-22.64-15-0.16-2.3,2.5-12.82,6.66-27.71,11.35-40.61,33.95-113.73,41.49-141.42,10.32-37.84,25.74-62.74,63.06-55C1187,417.24,1190,473.17,1175.69,502.41Z" class="color87bfc1 svgShape"></path><path fill="#ffffff" d="M1064.79,629a24.06,24.06,0,0,1-8.81,18.63c-12.93-6.55-22.46-12.28-22.64-15-0.16-2.3,2.5-12.82,6.66-27.71h0.7A24.1,24.1,0,0,1,1064.79,629Z" class="colorfff svgShape"></path><path fill="#262424" d="M1136.13,650.37a1.67,1.67,0,0,1-1-.3L1082.83,614a1.68,1.68,0,0,1-.42-2.35l82.84-118a1.68,1.68,0,0,1,2.75,1.93l-81.87,116.6,50.95,35.14A1.68,1.68,0,0,1,1136.13,650.37Z" class="color262424 svgShape"></path><path fill="#262424" d="M1124.08 674.54a1.68 1.68 0 01-1.45-2.52l16.79-29.12a1.68 1.68 0 012.91 1.68l-16.79 29.12A1.68 1.68 0 011124.08 674.54zM1166.63 496.29a1.66 1.66 0 01-.39 0l-4.54-1.08a15.91 15.91 0 01-12.43-15.68c0-.42 0-.83.08-1.25l3.44-34a1.68 1.68 0 013.34.34l-3.44 34c0 .34-.06.67-.06 1a12.54 12.54 0 009.84 12.31l2.58.61 2.72-48.18a1.68 1.68 0 113.35.19l-2.83 50.19A1.68 1.68 0 011166.63 496.29z" class="color262424 svgShape"></path><path fill="#62d0b1" d="M1242.29,655.66l-0.18,76.21L1242,773.69l-8.07,0a12.81,12.81,0,0,1-1.72-.11c-5.52-.69-10.45-4.63-13.1-10.53a166.25,166.25,0,0,0-12.78-23.24,183.69,183.69,0,0,0-32.45-37.58l2.71-41.13c20.21-3.41,41.58-4.17,55.92-5.06C1238.48,655.65,1242.29,655.66,1242.29,655.66Z" class="color87bfc1 svgShape"></path><path fill="#ffffff" d="M1242.11,731.87L1242,773.69l-8.07,0a12.81,12.81,0,0,1-1.72-.11c-5.52-.69-10.45-4.63-13.1-10.53a166.25,166.25,0,0,0-12.78-23.24C1211.3,737.06,1222.55,732.44,1242.11,731.87Z" class="colorfff svgShape"></path><path fill="#262424" d="M1242,775.37h0l-8.07,0a15.06,15.06,0,0,1-1.93-.13c-6.13-.76-11.53-5.07-14.42-11.51a164.77,164.77,0,0,0-12.66-23,1.68,1.68,0,0,1,.6-2.39c5.08-2.78,16.59-7.53,36.55-8.12a1.68,1.68,0,0,1,1.73,1.68l-0.11,41.82A1.68,1.68,0,0,1,1242,775.37Zm-8.09-3.38,6.41,0,0.1-38.4c-16.33.7-26.42,4.25-31.69,6.81a167.12,167.12,0,0,1,11.9,21.92c2.41,5.36,6.81,8.93,11.78,9.55A12.44,12.44,0,0,0,1233.91,772Z" class="color262424 svgShape"></path><path fill="#ffffff" d="M1233.93,773.67l8.07,0,0.29-118s-3.81,0-9.8.36l-0.29,117.55A14.45,14.45,0,0,0,1233.93,773.67Z" class="colorfff svgShape"></path><path fill="#262424" d="M1242,775.37h0l-8.07,0a16,16,0,0,1-1.93-.12,1.68,1.68,0,0,1-1.47-1.67L1230.81,656a1.68,1.68,0,0,1,1.58-1.67c6-.37,9.77-0.36,9.91-0.36a1.68,1.68,0,0,1,1.68,1.68l-0.29,118A1.68,1.68,0,0,1,1242,775.37Zm-8.12-3.38h0.05l6.39,0,0.29-114.66c-1.4,0-3.63.09-6.44,0.25Z" class="color262424 svgShape"></path><polygon fill="#ffffff" points="1292.07 744.43 1334.77 783.4 1347.62 768.43 1312.9 726.29 1292.07 744.43" class="colorfff svgShape"></polygon><path fill="#262424" d="M1334.77,785.08a1.68,1.68,0,0,1-1.13-.44l-42.71-39a1.68,1.68,0,0,1,0-2.51L1311.8,725a1.68,1.68,0,0,1,2.4.2l34.71,42.13a1.68,1.68,0,0,1,0,2.16l-12.85,15a1.68,1.68,0,0,1-1.17.58h-0.1Zm-40.18-40.62,40,36.53,10.8-12.58-32.72-39.71Z" class="color262424 svgShape"></path><path fill="#62d0b1" d="M1396.88,750.29l-13.82,74.95-7.59,41.13-7.94-1.47a12.81,12.81,0,0,1-1.68-.42c-5.31-1.66-9.45-6.42-11-12.71a166.25,166.25,0,0,0-8.42-25.16,183.69,183.69,0,0,0-25.21-42.78l10-40c20.5,0.26,41.66,3.34,55.92,5C1393.13,749.6,1396.88,750.29,1396.88,750.29Z" class="color87bfc1 svgShape"></path><path fill="#ffffff" d="M1383.06,825.24l-7.59,41.13-7.94-1.47a12.81,12.81,0,0,1-1.68-.42c-5.31-1.66-9.45-6.42-11-12.71a166.25,166.25,0,0,0-8.42-25.16C1351.82,824.84,1363.71,822.31,1383.06,825.24Z" class="colorfff svgShape"></path><path fill="#262424" d="M1375.47,868.05l-0.31,0-7.94-1.47a14.57,14.57,0,0,1-1.88-.47c-5.9-1.85-10.43-7-12.13-13.9a164.78,164.78,0,0,0-8.33-24.9,1.68,1.68,0,0,1,1-2.25c5.5-1.83,17.67-4.44,37.41-1.45a1.68,1.68,0,0,1,1.4,2l-7.59,41.13A1.68,1.68,0,0,1,1375.47,868.05Zm-26.77-40.36a167.4,167.4,0,0,1,7.79,23.69c1.41,5.71,5.1,10,9.88,11.5a11,11,0,0,0,1.46.37l6.3,1.17,7-37.76C1364.9,824.42,1354.34,826.11,1348.7,827.69Z" class="color262424 svgShape"></path><path fill="#ffffff" d="M1367.53,864.91l7.94,1.46,21.41-116.08s-3.75-.69-9.71-1.4l-21.32,115.6A14.45,14.45,0,0,0,1367.53,864.91Z" class="colorfff svgShape"></path><path fill="#262424" d="M1375.47,868.06l-0.3,0-7.94-1.46h0a16.19,16.19,0,0,1-1.88-.47,1.68,1.68,0,0,1-1.15-1.91l21.32-115.6a1.68,1.68,0,0,1,1.85-1.36c6,0.71,9.66,1.39,9.82,1.42a1.68,1.68,0,0,1,1.35,2l-21.41,116.08A1.68,1.68,0,0,1,1375.47,868.06Zm-7.63-4.8,6.28,1.16,20.79-112.76c-1.39-.22-3.59-0.56-6.38-0.91l-20.75,112.5h0.05Z" class="color262424 svgShape"></path><path fill="#62d0b1" d="M1319.9,726.32l-30.2,29.58-92.93-76.75-3.14-2.6-7.69-6.42a31.42,31.42,0,0,1-11.15-21.36c-0.27-3.09-.58-6.67-0.91-10.62,0,0,0-.09,0-0.12-2.8-33.19-7.38-93.17-7.21-126.94,0.36-68-3.69-108.56,28.4-124.71,42.46-21.36,72.56,22.58,71.3,73.51S1241.2,630,1241.2,630Z" class="color87bfc1 svgShape"></path><path fill="#ffffff" d="M1201.36,664.3a26.19,26.19,0,0,1-4.6,14.85l-3.14-2.6-7.69-6.42a31.42,31.42,0,0,1-11.15-21.36c-0.27-3.09-.58-6.67-0.91-10.62,0,0,0-.09,0-0.12,0.39,0,.8,0,1.21,0A26.31,26.31,0,0,1,1201.36,664.3Z" class="colorfff svgShape"></path><path fill="#262424" d="M1237.25 714.27a1.67 1.67 0 01-1.07-.38l-43.63-36-7.7-6.43a33.23 33.23 0 01-6-6.62 1.68 1.68 0 112.77-1.91 29.88 29.88 0 005.42 6l10.83 9 40.48 33.43A1.68 1.68 0 011237.25 714.27zM1166.64 521.23a1.68 1.68 0 01-1.68-1.67q0-4.27 0-8.49c0-7.46 0-14.55 0-21.4 0-19.16-.07-35.71 1.1-49.83a1.68 1.68 0 113.35.28c-1.15 14-1.12 30.46-1.08 49.55 0 6.86 0 14 0 21.42q0 4.19 0 8.45a1.68 1.68 0 01-1.67 1.69h0zM1239.85 470.41a1.67 1.67 0 01-.91-.27l-3.45-2.24a19.18 19.18 0 01-8.64-18.26l3.78-34.27a1.68 1.68 0 013.34.37L1230.19 450a15.83 15.83 0 007.14 15.08l3.45 2.24A1.68 1.68 0 011239.85 470.41z" class="color262424 svgShape"></path><path fill="#262424" d="M1295.38,735.43a1.68,1.68,0,0,1-1.26-.57L1216.34,647a1.68,1.68,0,0,1-.41-1.33l28.77-222.35a1.68,1.68,0,1,1,3.33.43l-28.67,221.59,77.28,87.28A1.68,1.68,0,0,1,1295.38,735.43Z" class="color262424 svgShape"></path><path fill="#262424" d="M1284.31,745.87a1.68,1.68,0,0,1-1.15-2.9l24.34-23a1.68,1.68,0,1,1,2.3,2.45l-24.34,23A1.67,1.67,0,0,1,1284.31,745.87Z" class="color262424 svgShape"></path><path fill="#ffffff" d="M934.17,263l-22.51-22a3.25,3.25,0,0,0-4.27-.23h0a3.25,3.25,0,0,0-.58,4.53l8,10.46-28-9.52a3.33,3.33,0,0,0-4.14,1.85h0a3.33,3.33,0,0,0,1.49,4.22l16.78,9-15.36-3A5.59,5.59,0,0,0,879,263a48.83,48.83,0,0,0,.77,17.49,5.59,5.59,0,0,0,5.15,4.28l31.7,1.67,17.45-3.11Z" class="colorfff svgShape"></path><path fill="#262424" d="M916.62,288.15h-0.09l-31.7-1.67a7.3,7.3,0,0,1-6.7-5.58,50.7,50.7,0,0,1-.8-18.1,7.19,7.19,0,0,1,3-4.94,7.32,7.32,0,0,1,5.66-1.22l4.37,0.86-6.91-3.71a5,5,0,0,1,4-9.15l22.73,7.74-4.64-6.07a4.93,4.93,0,0,1,7.36-6.52l22.51,22a1.68,1.68,0,0,1,.5,1.21l-0.11,20.36a1.68,1.68,0,0,1-1.39,1.65l-17.45,3.11Zm-32.09-28.29a3.91,3.91,0,0,0-3.87,3.38,47.28,47.28,0,0,0,.74,16.89,3.92,3.92,0,0,0,3.61,3l31.51,1.66L932.39,282l0.1-18.24-22-21.5a1.57,1.57,0,0,0-2.34,2.07l8,10.46a1.68,1.68,0,0,1-1.88,2.61l-28-9.52a1.65,1.65,0,0,0-1.31,3l16.78,9a1.68,1.68,0,0,1-1.12,3.13l-15.36-3A4,4,0,0,0,884.52,259.86Z" class="color262424 svgShape"></path><path fill="#62d0b1" d="M932,289.26s49.64,11.82,71.94,17.69c8.67,2.28,15.61,3.8,18.16,3.64,1.57-.1,7.41-1.77,15.33-4.27,21.53-6.79,65.3-22.73,73.89-27,11.76-5.8,29.83-14.77,28.74-29.09s-17-30.76-27.92-27.49c-12,3.57-95.61,39-95.61,39l-81.57-2.38C925.68,269.14,932,289.26,932,289.26Z" class="color87bfc1 svgShape"></path><path fill="#ffffff" d="M1003.93,306.95c8.67,2.28,15.61,3.8,18.16,3.64,1.57-.1,7.41-1.77,15.33-4.27A17.22,17.22,0,0,0,1003.93,306.95Z" class="colorfff svgShape"></path><path fill="#262424" d="M940.61 289.09a1.68 1.68 0 01-1.54-1c-6.78-15.24.1-26.19.39-26.65a1.68 1.68 0 012.82 1.82c-.26.41-6.16 10-.15 23.46A1.68 1.68 0 01940.61 289.09zM1017.12 291.53a1.68 1.68 0 01-1.6-1.17 47.59 47.59 0 01-.77-25.54 1.68 1.68 0 013.23.94 45 45 0 00.74 23.58A1.68 1.68 0 011017.12 291.53z" class="color262424 svgShape"></path><path fill="#173753" d="M1113.91,221.9l32.46,4,46,1.06a35.88,35.88,0,0,1,33.82,26.54l22.64,84,27.33,83.7s-70,38.72-109.9,37-83.7-25.62-83.7-25.62,20.5-72.32,22.78-105.34c0,0-14.8-27.33-18.22-40.43S1113.91,221.9,1113.91,221.9Z" class="colorde9244 svgShape"></path><path fill="#262424" d="M1095.68,309.74a1.68,1.68,0,0,1-1.52-1c-4.46-9.43-7.37-16.68-8.63-21.54-2.81-10.78,14.11-43.35,24.44-61.8a1.68,1.68,0,1,1,2.93,1.64c-13.06,23.31-26.26,51.14-24.12,59.31,1.21,4.66,4,11.71,8.42,20.95A1.68,1.68,0,0,1,1095.68,309.74Z" class="color262424 svgShape"></path><path fill="#ffffff" d="M1144.19,215.54c-15.73,4.67-25,27.14-6.12,36.31,0,0,1.53-9.36,4.4-14,0,0,1.91,8.41,6.69,14,0,0,16.82-8.41,19.11-21.79S1156.42,211.91,1144.19,215.54Z" class="colorfff svgShape"></path><path fill="#262424" d="M1149.16,253.53a1.68,1.68,0,0,1-1.27-.58,34,34,0,0,1-5.74-10.36,63.56,63.56,0,0,0-2.42,9.53,1.68,1.68,0,0,1-2.39,1.24c-7.9-3.83-12.07-10.48-11.43-18.25,0.77-9.44,8.26-18.35,17.81-21.18,8.38-2.49,17-1.22,22.06,3.24,2.54,2.25,5.32,6.37,4.15,13.18-2.41,14.05-19.3,22.65-20,23A1.68,1.68,0,0,1,1149.16,253.53Zm-6.69-17.31,0.28,0a1.68,1.68,0,0,1,1.36,1.28,37.44,37.44,0,0,0,5.48,12.18c3.75-2.16,15.25-9.54,17-19.92,0.73-4.25-.3-7.64-3.07-10.1-4.11-3.65-11.69-4.67-18.87-2.53h0c-8.14,2.42-14.76,10.25-15.41,18.23-0.47,5.75,2.21,10.61,7.6,13.9,0.66-3.17,2.06-8.86,4.19-12.27A1.68,1.68,0,0,1,1142.47,236.22Zm1.72-20.68h0Z" class="color262424 svgShape"></path><path fill="#262424" d="M1116.19,162.51s2.67,42.33-1.34,63.85c0,0,33.21,7.25,52.6-7.68s7.8-72.44-7.58-73.33S1116.19,162.51,1116.19,162.51Z" class="color262424 svgShape"></path><path fill="#ffffff" d="M1134.55,196.72l-0.5,29.55s5,8,12,7.71,13.09-8.36,13.09-8.36l-2.81-32.54Z" class="colorfff svgShape"></path><path fill="#262424" d="M1145.68 235.67c-7.65 0-12.84-8.15-13.06-8.5a1.67 1.67 0 01-.26-.92l.5-29.55a1.68 1.68 0 011.4-1.63l21.76-3.65a1.68 1.68 0 012 1.51l2.81 32.54a1.68 1.68 0 01-.33 1.16c-.27.36-6.66 8.73-14.37 9h-.41zm-10-9.9c1.05 1.49 5.1 6.69 10.23 6.53s10-5.55 11.42-7.21l-2.6-30.06-18.59 3.11zM1165.17 448.73h-.63c-28.57-.48-66.5-17.8-68.1-18.54a1.68 1.68 0 111.4-3.05c.39.18 38.9 17.76 66.75 18.23h.58c28.19 0 96.65-33.36 97.35-33.7a1.68 1.68 0 111.48 3C1261.15 416.08 1194.15 448.73 1165.17 448.73z" class="color262424 svgShape"></path><path fill="#ffffff" d="M1030.94,365.88l-33.1-9.32a3.55,3.55,0,0,0-4.22,2h0a3.55,3.55,0,0,0,1.82,4.65l13.14,5.85-31.8,5.5a3.63,3.63,0,0,0-3,3.94h0a3.63,3.63,0,0,0,3.64,3.27l20.81-.13-16.32,5.12a6.11,6.11,0,0,0-3.89,8,53.35,53.35,0,0,0,9.9,16.37,6.11,6.11,0,0,0,7.18,1.41l31.28-15,15.11-12.11Z" class="colorfff svgShape"></path><path fill="#262424" d="M992.46,414.83a7.78,7.78,0,0,1-5.79-2.57,55.25,55.25,0,0,1-10.21-16.89,7.7,7.7,0,0,1,.26-6.17,7.84,7.84,0,0,1,4.69-4l5.63-1.77-9.61.06h0a5.31,5.31,0,0,1-.9-10.55l26.35-4.56-8.09-3.6a5.23,5.23,0,0,1,3.54-9.81l33.1,9.32a1.68,1.68,0,0,1,1,.82L1043,384.66a1.68,1.68,0,0,1-.43,2.11l-15.11,12.11a1.68,1.68,0,0,1-.33.2l-31.28,15A7.78,7.78,0,0,1,992.46,414.83ZM998.23,380a1.68,1.68,0,0,1,.5,3.28l-16.32,5.12a4.43,4.43,0,0,0-2.82,5.81A51.82,51.82,0,0,0,989.17,410a4.44,4.44,0,0,0,5.21,1l31.1-14.9L1039.35,385l-9.55-17.72-32.41-9.13a1.87,1.87,0,0,0-1.27,3.5l13.14,5.85a1.68,1.68,0,0,1-.4,3.19l-31.8,5.5a2,2,0,0,0,.33,3.88h0l20.81-.13h0Z" class="color262424 svgShape"></path><path fill="#62d0b1" d="M1042.59,392.2s53.8-14.64,78.25-20.69c9.51-2.35,17-4.52,19.32-6,1.46-.92,6.18-5.58,12.47-12.12,17.1-17.78,50.73-56,56.75-64.55,8.25-11.72,20.88-29.78,12.33-42.94s-32.37-20.62-41.17-11.75c-9.62,9.69-71.28,87.44-71.28,87.44L1029.77,362C1026,376.2,1042.59,392.2,1042.59,392.2Z" class="color87bfc1 svgShape"></path><path fill="#ffffff" d="M1120.84,371.51c9.51-2.35,17-4.52,19.32-6,1.46-.92,6.18-5.58,12.47-12.12A18.81,18.81,0,0,0,1120.84,371.51Z" class="colorfff svgShape"></path><path fill="#262424" d="M1049.88 387.59a1.68 1.68 0 01-1-.35c-14.42-11-13.55-25-13.51-25.63a1.68 1.68 0 013.35.25c0 .55-.7 12.85 12.2 22.71A1.68 1.68 0 011049.88 387.59zM1124.55 349.89a1.67 1.67 0 01-1.16-.46 51.8 51.8 0 01-14.06-24 1.68 1.68 0 013.28-.72 49.29 49.29 0 0013.09 22.3A1.68 1.68 0 011124.55 349.89z" class="color262424 svgShape"></path><path fill="#ffffff" d="M1109,178.42c-0.1,15.2,5.56,33.08,23.91,33.71,13.49,0.46,29.38-14.83,31.76-35.22s-0.1-38.11-24.78-38.39a59.57,59.57,0,0,0-7.89.55c-14.47,2.28-20,3.22-22.77,31.24C1109,172.79,1109,175.55,1109,178.42Z" class="colorfff svgShape"></path><path fill="#262424" d="M1133.43,213.83h-0.58c-19-.65-25.63-18.72-25.53-35.4v-1.09c0-2.54,0-4.93.23-7.17,2.77-28,8.38-30.24,24.18-32.73a1.68,1.68,0,0,1,.52,3.32c-14,2.2-18.71,2.95-21.36,29.74-0.21,2.08-.21,4.39-0.22,6.85v1.1c0,7.34,1.42,31.31,22.28,32,4.12,0.13,8.93-1.72,15.11-5.87a1.68,1.68,0,0,1,1.87,2.79C1143.32,211.82,1138.2,213.83,1133.43,213.83Z" class="color262424 svgShape"></path><path fill="#262424" d="M1157.69,179.26a15,15,0,0,1-8.27-12.87c-0.1-1.82,0-4.26-.35-6.51-11.63,10.08-32.24,14.91-41.18,16.61a6.81,6.81,0,0,1-7.28-3.25c-8.74-16,6.09-43.56,25.51-41.16,23.55-13.21,48.31.35,50.23,19.37C1178.45,172.53,1163.67,182.44,1157.69,179.26Z" class="color262424 svgShape"></path><path fill="#262424" d="M1155.4,128.25s34.79,3.51,32.78,86.93c0,0-10,9.58-32.78,15.09,0,0,9.82-39.21,5.37-59.5S1155.4,128.25,1155.4,128.25Z" class="color262424 svgShape"></path><path fill="#ffffff" d="M1158.33,177.4s10.57-9.65,20.82-5.67,4.84,28.27-20.79,23.62Z" class="colorfff svgShape"></path><path fill="#262424" d="M1164.5,197.61a36.09,36.09,0,0,1-6.44-.61,1.68,1.68,0,1,1,.6-3.31c14.23,2.58,21.41-4.07,23.23-10.54,1.26-4.47-.15-8.61-3.35-9.86-9.17-3.57-19,5.25-19.08,5.35a1.68,1.68,0,1,1-2.27-2.48c0.46-.42,11.46-10.31,22.56-6,4.85,1.89,7.11,7.73,5.37,13.9C1183.09,191.26,1176,197.61,1164.5,197.61Z" class="color262424 svgShape"></path><polygon fill="#ffffff" points="600.79 1225.78 597.9 1270.76 621.98 1270.76 631.77 1227.64 600.79 1225.78" class="colorfff svgShape"></polygon><path fill="#262424" d="M622,1272.44H597.9a1.68,1.68,0,0,1-1.68-1.79l2.89-45a1.67,1.67,0,0,1,1.78-1.57l31,1.87a1.68,1.68,0,0,1,1.54,2l-9.8,43.12A1.68,1.68,0,0,1,622,1272.44Zm-22.29-3.36h20.95l9.06-39.88-27.34-1.65Z" class="color262424 svgShape"></path><path fill="#62d0b1" d="M686.65,862.55s-84.37,215-85.86,223.24-6,113.49-6,113.49l50-.75,25.39-93.33L793.42,945.42v-109C793.42,808,730.7,755.78,686.65,862.55Z" class="color87bfc1 svgShape"></path><path fill="#262424" d="M638.12 1183a1.68 1.68 0 01-1.62-2.12l21.65-79.14a1.67 1.67 0 01.25-.53L787.2 920.55a1.68 1.68 0 112.74 1.95L661.31 1102.94l-21.57 78.85A1.68 1.68 0 01638.12 1183zM687.06 897.08h-4.89a1.68 1.68 0 010-3.36h4.89a16 16 0 0014-8.24l9.87-17.77a1.68 1.68 0 112.94 1.63L704 887.11A19.39 19.39 0 01687.06 897.08z" class="color262424 svgShape"></path><path fill="#262424" d="M788.57,923.21a1.69,1.69,0,0,1-.53-0.09l-5.37-1.79A15.1,15.1,0,0,1,772.33,907V876a1.68,1.68,0,0,1,3.36,0v31a11.74,11.74,0,0,0,8,11.15l3.16,1.05V871.88a1.68,1.68,0,1,1,3.36,0v49.65A1.68,1.68,0,0,1,788.57,923.21Z" class="color262424 svgShape"></path><ellipse cx="622.54" cy="1095.12" fill="#ffffff" rx="28.71" ry="16.81" transform="rotate(-81.89 622.49 1095.106)" class="colorfff svgShape"></ellipse><path fill="#62d0b1" d="M643.81,1354.2H548.62a103.07,103.07,0,0,1,2-18.76c1-4.88,2.62-9.68,5-12.88,7-9.24,30.24-46.76,37-63.84h37.52s11.2,59.08,12.32,66.64c0.35,2.36.62,6.09,0.82,10.08C643.68,1344.17,643.81,1354.2,643.81,1354.2Z" class="color87bfc1 svgShape"></path><path fill="#ffffff" d="M643.81,1354.2H548.62a103.07,103.07,0,0,1,2-18.76h92.65C643.68,1344.17,643.81,1354.2,643.81,1354.2Z" class="colorfff svgShape"></path><path fill="#262424" d="M643.81,1355.88H548.62a1.68,1.68,0,0,1-1.68-1.68,103.67,103.67,0,0,1,2-19.11,1.68,1.68,0,0,1,1.64-1.33h92.65a1.68,1.68,0,0,1,1.68,1.59c0.44,8.67.58,18.72,0.58,18.82A1.68,1.68,0,0,1,643.81,1355.88Zm-93.48-3.36h91.77c-0.05-3-.19-9.35-0.47-15.4H552A103.19,103.19,0,0,0,550.33,1352.52Z" class="color262424 svgShape"></path><path fill="#173753" d="M642.38,1239.35l-48.37.21a8.75,8.75,0,0,1-8.71-8.82v-35A8.75,8.75,0,0,1,594,1187h51.29a8.76,8.76,0,0,1,8.65,9.57L651,1231.28A8.74,8.74,0,0,1,642.38,1239.35Z" class="colorde9244 svgShape"></path><polygon fill="#ffffff" points="986.05 1225.78 988.94 1270.76 964.86 1270.76 955.06 1227.64 986.05 1225.78" class="colorfff svgShape"></polygon><path fill="#262424" d="M988.94,1272.44H964.86a1.68,1.68,0,0,1-1.64-1.31l-9.8-43.12a1.68,1.68,0,0,1,1.54-2l31-1.87a1.68,1.68,0,0,1,1.78,1.57l2.89,45A1.68,1.68,0,0,1,988.94,1272.44Zm-22.74-3.36h20.95l-2.67-41.53-27.34,1.65Z" class="color262424 svgShape"></path><path fill="#62d0b1" d="M900.19,862.55s84.37,215,85.86,223.24,6,113.49,6,113.49l-50-.75-25.39-93.33L793.42,945.42v-109C793.42,808,856.14,755.78,900.19,862.55Z" class="color87bfc1 svgShape"></path><path fill="#262424" d="M948.72 1183a1.68 1.68 0 01-1.62-1.24l-21.57-78.85L796.9 922.5a1.68 1.68 0 112.74-1.95l128.79 180.68a1.67 1.67 0 01.25.53l21.65 79.14A1.68 1.68 0 01948.72 1183zM904.67 897.08h-4.89a19.39 19.39 0 01-16.94-10L873 869.33a1.68 1.68 0 012.94-1.63l9.88 17.77a16 16 0 0014 8.24h4.89A1.68 1.68 0 01904.67 897.08z" class="color262424 svgShape"></path><ellipse cx="964.3" cy="1095.12" fill="#ffffff" rx="16.81" ry="28.71" transform="rotate(-8.11 964.633 1095.434)" class="colorfff svgShape"></ellipse><path fill="#62d0b1" d="M943,1354.2h95.19a103.07,103.07,0,0,0-2-18.76c-1-4.88-2.62-9.68-5-12.88-7-9.24-30.24-46.76-37-63.84H956.74s-11.2,59.08-12.32,66.64c-0.35,2.36-.62,6.09-0.82,10.08C943.16,1344.17,943,1354.2,943,1354.2Z" class="color87bfc1 svgShape"></path><path fill="#ffffff" d="M943,1354.2h95.19a103.07,103.07,0,0,0-2-18.76H943.61C943.16,1344.17,943,1354.2,943,1354.2Z" class="colorfff svgShape"></path><path fill="#262424" d="M1038.22,1355.88H943a1.68,1.68,0,0,1-1.68-1.7c0-.1.14-10.16,0.58-18.82a1.68,1.68,0,0,1,1.68-1.59h92.65a1.68,1.68,0,0,1,1.64,1.33,103.64,103.64,0,0,1,2,19.11A1.68,1.68,0,0,1,1038.22,1355.88Zm-93.49-3.36h91.77a103.21,103.21,0,0,0-1.62-15.4H945.21C944.93,1343.17,944.79,1349.55,944.73,1352.52Z" class="color262424 svgShape"></path><path fill="#173753" d="M944.46,1239.35l48.37,0.21a8.75,8.75,0,0,0,8.71-8.82v-35a8.75,8.75,0,0,0-8.68-8.82H941.57a8.76,8.76,0,0,0-8.65,9.57l2.93,34.75A8.74,8.74,0,0,0,944.46,1239.35Z" class="colorde9244 svgShape"></path><path fill="#ffffff" d="M644.28,727.78s-42.56,22.68-67.48,21.84-24.17-25.32-12-38.64c14.28-15.68,61.32-42,61.32-42Z" class="colorfff svgShape"></path><path fill="#262424" d="M578.19,751.32l-1.44,0c-10-.34-17.2-4.52-20.26-11.77-3.73-8.83-.83-21,7-29.67,14.3-15.7,59.81-41.25,61.74-42.33a1.68,1.68,0,0,1,2.43,1l18.2,58.8a1.68,1.68,0,0,1-.81,2C643.35,730.18,603.38,751.32,578.19,751.32Zm46.91-79.85c-8.75,5-46.73,27.07-59.09,40.64-6.91,7.58-9.61,18.56-6.43,26.11,2.56,6.06,8.53,9.43,17.28,9.72,21.83,0.74,58.27-17.34,65.4-21Z" class="color262424 svgShape"></path><path fill="#173753" d="M700.09,624.82c-13.81,0-32.57,11.4-58.33,28.2s-37.52,25.76-37.52,25.76l35.84,66.64L695,714.34Z" class="colorde9244 svgShape"></path><path fill="#262424" d="M648.48,731.14a1.68,1.68,0,0,1-1.47-.87l-28.84-52.64a1.68,1.68,0,0,1,2.95-1.61L650,728.65A1.68,1.68,0,0,1,648.48,731.14Z" class="color262424 svgShape"></path><path fill="#ffffff" d="M915.31,727.78s42.56,22.68,67.48,21.84,24.17-25.32,12-38.64c-14.28-15.68-61.32-42-61.32-42Z" class="colorfff svgShape"></path><path fill="#262424" d="M981.41,751.32c-25.19,0-65.16-21.14-66.88-22.06a1.68,1.68,0,0,1-.81-2l18.2-58.8a1.68,1.68,0,0,1,2.42-1c1.93,1.08,47.44,26.63,61.74,42.33,7.87,8.64,10.76,20.84,7,29.67-3.06,7.25-10.26,11.44-20.26,11.77Zm-64.08-24.39c7.13,3.66,43.54,21.73,65.4,21,8.75-.29,14.72-3.66,17.28-9.72,3.18-7.54.48-18.52-6.43-26.11-12.36-13.57-50.34-35.64-59.09-40.64Z" class="color262424 svgShape"></path><path fill="#173753" d="M859.5,624.82c13.81,0,32.57,11.4,58.33,28.2s37.52,25.76,37.52,25.76l-35.84,66.64-54.88-31.08Z" class="colorde9244 svgShape"></path><path fill="#262424" d="M911.11,731.14a1.68,1.68,0,0,1-1.47-2.49L938.48,676a1.68,1.68,0,0,1,2.95,1.61l-28.84,52.64A1.68,1.68,0,0,1,911.11,731.14Z" class="color262424 svgShape"></path><path fill="#173753" d="M700.09,624.82s-19.79,66.37-19.79,83.54,17.92,40.69,17.92,40.69L663.88,867.21s44.53,34.72,121.66,34.72,133.12-36.4,133.12-36.4L870.51,745.14s13.39-27.44,13.14-39.76-24.33-80.56-24.33-80.56l-82.57,24.84Z" class="colorde9244 svgShape"></path><path fill="#ffffff" d="M766.54,673.65a23.68,23.68,0,0,1-15.12-20.72c-1.31-16.24,11.95-24.64,23.89-24.64s29.68,8.77,28.93,24.45-17.73,20.91-17.73,20.91c-2.38-6.81-5.69-11.68-9.77-14.93A25.85,25.85,0,0,0,766.54,673.65Z" class="colorfff svgShape"></path><path fill="#262424" d="M786.51 675.33a1.68 1.68 0 01-1.59-1.13c-2-5.75-4.79-10.24-8.27-13.36a24.9 24.9 0 00-8.49 13.22 1.68 1.68 0 01-2.15 1.18 25.61 25.61 0 01-16.28-22.18c-.57-7.1 1.47-13.39 5.89-18.19a27.07 27.07 0 0119.68-8.27c7.27 0 17.64 3.18 24.42 10.29a21.24 21.24 0 016.19 15.92c-.79 16.67-18.18 22.2-18.92 22.43A1.68 1.68 0 01786.51 675.33zM776.74 657a1.68 1.68 0 011 .36c4.09 3.25 7.35 8 9.72 14.09 4-1.62 14.5-7 15.06-18.83a17.73 17.73 0 00-5.27-13.44c-6.06-6.35-15.64-9.25-22-9.25a23.66 23.66 0 00-17.21 7.19 20 20 0 00-5 15.64 22.11 22.11 0 0012.36 18.57 27.19 27.19 0 0110.4-14.08A1.68 1.68 0 01776.74 657zM785.54 890.17c-66.19 0-110.33-26-110.77-26.23a1.68 1.68 0 011.73-2.88c.43.26 43.83 25.75 109 25.75s117.75-30.26 118.28-30.57a1.68 1.68 0 011.7 2.9C905 859.45 851.72 890.17 785.54 890.17zM681.45 718.33a1.68 1.68 0 01-1.63-1.27 35.72 35.72 0 01-1.2-8.7c0-13 10.68-52.17 17.05-74.39a1.68 1.68 0 113.23.93C693.82 652.66 682 695.35 682 708.37a32.4 32.4 0 001.1 7.87A1.68 1.68 0 01681.45 718.33zM881 720.83a1.68 1.68 0 01-1.59-2.23A45.72 45.72 0 00882 705.38c-.21-9.93-17-59.17-22.16-74a1.68 1.68 0 113.17-1.1c6.65 19.19 22.13 64.92 22.34 75.09a48.14 48.14 0 01-2.74 14.35A1.68 1.68 0 01881 720.83zM767.19 512.94c-10.34 20.33 19.66 28.83 31 32.24S830.76 576.06 852 569s22.7 47.69 87.6 41.24c50-5 81.1-69.25 50.41-87.09s-80.71 9.34-108.58-7.33c-17.74-10.61-32.05-37.14-63-21.28C795.34 506.37 773.26 501 767.19 512.94z" class="color262424 svgShape"></path><path fill="#ffffff" d="M744.14,602.85s-11-10-19.74-4.45-0.52,32.86,22.19,25Z" class="colorfff svgShape"></path><path fill="#262424" d="M738.76,626.52c-8.63,0-14.47-5.3-17.34-11.26-3.51-7.28-2.59-15.31,2.08-18.27,9.76-6.19,21.29,4.18,21.77,4.63a1.68,1.68,0,0,1-2.27,2.48c-0.1-.09-10.12-9.08-17.71-4.27-3.2,2-3.59,8.3-.85,14,1.5,3.12,7.49,12.91,21.59,8a1.68,1.68,0,1,1,1.1,3.18A25.66,25.66,0,0,1,738.76,626.52Z" class="color262424 svgShape"></path><path fill="#ffffff" d="M774.66,530.26l0.12-6.25a5.5,5.5,0,0,1,2.91-4.76,18.52,18.52,0,0,1,8-2.33,12.81,12.81,0,0,1,8.08,3.18,5.44,5.44,0,0,1,2,3.72l0.68,7.12a5.52,5.52,0,0,1-6,6l-10.72-1.09A5.52,5.52,0,0,1,774.66,530.26Z" class="colorfff svgShape"></path><path fill="#262424" d="M790.91,538.65a7.26,7.26,0,0,1-.73,0l-10.72-1.08a7.24,7.24,0,0,1-6.47-7.3l0.12-6.25a7.19,7.19,0,0,1,3.81-6.21,20.28,20.28,0,0,1,8.73-2.53,14.43,14.43,0,0,1,9.18,3.56,7.08,7.08,0,0,1,2.56,4.86l0.68,7.12A7.2,7.2,0,0,1,790.91,538.65Zm-5-20.06h-0.16a17,17,0,0,0-7.23,2.14,3.83,3.83,0,0,0-2,3.31l-0.12,6.25h0a3.86,3.86,0,0,0,3.45,3.89l10.72,1.08a3.84,3.84,0,0,0,4.21-4.18L794,524a3.75,3.75,0,0,0-1.34-2.57A11.22,11.22,0,0,0,785.87,518.59Zm-11.21,11.67h0Z" class="color262424 svgShape"></path><path fill="#ffffff" d="M741.81,605c2.21,20.37,12.53,43.46,37.21,41.49,18.14-1.45,37.07-24.39,37.13-52.06s-6-51-39.1-47.62a80.31,80.31,0,0,0-10.48,2c-19,5.28-26.29,7.39-25.71,45.34C740.91,597.51,741.38,601.2,741.81,605Z" class="colorfff svgShape"></path><path fill="#262424" d="M776.11,648.33c-23,0-33.68-21.92-36-43.1L740,603.77c-0.38-3.39-.74-6.58-0.79-9.59-0.6-39.35,7.46-41.58,26.94-47a1.68,1.68,0,1,1,.9,3.24c-18.73,5.19-25,6.94-24.48,43.7,0,2.85.4,6,.77,9.27l0.16,1.47c1,9.63,6.44,40.11,32.56,40.11,0.92,0,1.86,0,2.84-.12,5.66-.45,11.89-3.71,19.59-10.26,0.67-.73,6.56-7.23,9.82-13.89a1.68,1.68,0,1,1,3,1.48c-3.66,7.49-10.17,14.48-10.45,14.77l-0.14.13c-8.42,7.17-15.07,10.59-21.58,11.11C778.11,648.29,777.1,648.33,776.11,648.33Z" class="color262424 svgShape"></path><path fill="#262424" d="M807.15,598.68a20.17,20.17,0,0,1-13.06-16c-0.42-2.43-.71-5.71-1.48-8.66-14,15.29-40.89,24.93-52.61,28.58a9.18,9.18,0,0,1-10.26-3.24c-14.16-20,1.46-59.29,27.84-59.06,29.51-21.32,64.77-7,70.26,18.23C833.93,586.48,815.66,602,807.15,598.68Z" class="color262424 svgShape"></path><path fill="#ffffff" d="M808,599.66s8.4-12.24,18.22-8.81,7.95,31.89-15.94,29.39Z" class="colorfff svgShape"></path><path fill="#262424" d="M813.25,622.08a29.75,29.75,0,0,1-3.1-.17,1.68,1.68,0,0,1,.35-3.34c14.82,1.55,18.45-9.34,19.21-12.72,1.38-6.15-.42-12.17-4-13.42-8.48-3-16.2,8.06-16.28,8.17a1.68,1.68,0,0,1-2.77-1.9c0.37-.54,9.25-13.25,20.16-9.44,5.22,1.83,7.93,9.44,6.17,17.32C831.26,614.31,825.17,622.08,813.25,622.08Z" class="color262424 svgShape"></path><path fill="#ffffff" d="M883.72,647.14s52.92,83.72,61.88,93.51,37.24,14.84,48.16,2,3.08-39.2-11.2-49S896,632.3,896,632.3Z" class="colorfff svgShape"></path><path fill="#262424" d="M973.19,752c-11.34,0-23.36-4.24-28.83-10.23-9-9.8-59.89-90.33-62.06-93.75a1.68,1.68,0,0,1,.13-2l12.32-14.84a1.68,1.68,0,0,1,2.27-.29c0.72,0.52,72.39,51.62,86.49,61.3,8.54,5.86,15.1,17.38,16.7,29.33,1.2,8.94-.64,16.8-5.17,22.14-4.4,5.19-11.85,8.14-21,8.31h-0.84Zm-87.4-104.74c6.1,9.63,52.82,83.25,61,92.25,4.94,5.4,16.6,9.33,27.13,9.13,8.17-.15,14.74-2.68,18.5-7.12,3.91-4.61,5.47-11.54,4.4-19.52-1.46-10.88-7.59-21.74-15.27-27-13.08-9-75.54-53.49-85.27-60.43Z" class="color262424 svgShape"></path><path fill="#ffffff" d="M865,610.19L832.06,598a4.06,4.06,0,0,0-5.21,2.37h0a4.06,4.06,0,0,0,1.77,5l29.48,17Z" class="colorfff svgShape"></path><path fill="#262424" d="M858.1,624a1.68,1.68,0,0,1-.84-0.23l-29.48-17a5.74,5.74,0,0,1,4.87-10.36l32.9,12.18a1.68,1.68,0,0,1,.88,2.4l-6.86,12.18A1.68,1.68,0,0,1,858.1,624Zm-27.45-24.61a2.38,2.38,0,0,0-1.2,4.45l28,16.18,5.06-9-31.05-11.5A2.37,2.37,0,0,0,830.65,599.43Z" class="color262424 svgShape"></path><path fill="#ffffff" d="M863.7,637.62c7.36,5.52,9.94,12.46,4.2,14.7s-20.86-9.24-19.88-14S853.62,630.06,863.7,637.62Z" class="colorfff svgShape"></path><path fill="#262424" d="M866.18,654.29c-4.64,0-10.63-3.93-13.83-6.64-2.53-2.14-6.68-6.24-6-9.67a7.65,7.65,0,0,1,4.65-6c3.53-1.34,8.14.09,13.69,4.26h0c5.42,4.06,8.47,8.95,7.95,12.74a6.1,6.1,0,0,1-4.15,4.87A6.37,6.37,0,0,1,866.18,654.29ZM853.76,634.9a4.35,4.35,0,0,0-1.55.26,4.56,4.56,0,0,0-2.54,3.5c-0.16.77,1,3.19,4.85,6.43,4.76,4,10.49,6.56,12.78,5.67,1.84-.72,2-1.83,2-2.19,0.29-2.09-1.66-5.86-6.63-9.6h0C859.14,636.3,856,634.9,853.76,634.9Z" class="color262424 svgShape"></path><path fill="#ffffff" d="M873.92,613.13s-7.42-7.28-16.52-2.94-9.66,28.14,5.88,28.42S873.92,613.13,873.92,613.13Z" class="colorfff svgShape"></path><path fill="#262424" d="M863.53,640.29h-0.28c-6.84-.12-11.87-4.54-13.44-11.82s0.62-16.82,6.87-19.8c10-4.79,18.08,2.93,18.42,3.26a1.68,1.68,0,0,1,.47.89c0.13,0.66,3,16.2-3.25,23.6A11,11,0,0,1,863.53,640.29Zm-0.17-29.8a12.06,12.06,0,0,0-5.24,1.22c-4.11,2-6.46,9.46-5,16.05,0.73,3.37,3,9,10.22,9.17a7.63,7.63,0,0,0,6.44-2.67c4.65-5.51,3-17.57,2.61-20.27A14.54,14.54,0,0,0,863.37,610.48Z" class="color262424 svgShape"></path><path fill="#ffffff" d="M882,612c15.16,5.21,18.76,12.74,18.9,20.86s-5.74,19.46-15.12,17.78-23.1-6-24.5-15.54S863.7,605.71,882,612Z" class="colorfff svgShape"></path><path fill="#262424" d="M887.66,652.49a12.15,12.15,0,0,1-2.14-.19c-9-1.61-24.25-5.94-25.87-16.95-0.92-6.23.17-17.52,6.9-23.11,2.85-2.36,7.94-4.6,16-1.82,13.67,4.69,19.85,11.61,20,22.42,0.11,6.14-2.81,13-7.08,16.62A12,12,0,0,1,887.66,652.49Zm-12.16-40a10.32,10.32,0,0,0-6.8,2.34c-5.62,4.67-6.49,14.77-5.72,20,1.36,9.26,16.63,13,23.13,14.13a8.46,8.46,0,0,0,7.24-2.1c4-3.38,6-9.6,5.9-14-0.11-6.56-2.31-14-17.77-19.3h0A18.56,18.56,0,0,0,875.5,612.48Z" class="color262424 svgShape"></path><path fill="#ffffff" d="M669.76,647.14s-52.92,83.72-61.88,93.51-37.24,14.84-48.16,2-3.08-39.2,11.2-49,86.52-61.32,86.52-61.32Z" class="colorfff svgShape"></path><path fill="#262424" d="M580.29,752h-0.84c-9.15-.17-16.61-3.12-21-8.31-4.53-5.34-6.36-13.2-5.17-22.14,1.6-12,8.15-23.47,16.7-29.33,14.1-9.68,85.77-60.78,86.49-61.3a1.68,1.68,0,0,1,2.27.29l12.32,14.84a1.68,1.68,0,0,1,.13,2c-2.16,3.42-53.1,84-62.06,93.75C603.65,747.78,591.63,752,580.29,752Zm76.86-117.44C647.41,641.52,585,686,571.88,695c-7.68,5.27-13.81,16.12-15.27,27-1.07,8,.49,14.92,4.4,19.52,3.76,4.44,10.33,7,18.5,7.12,10.54,0.22,22.19-3.73,27.13-9.13,8.22-9,54.95-82.62,61-92.25Z" class="color262424 svgShape"></path><path fill="#ffffff" d="M688.52,610.19L721.42,598a4.06,4.06,0,0,1,5.21,2.37h0a4.06,4.06,0,0,1-1.77,5l-29.48,17Z" class="colorfff svgShape"></path><path fill="#262424" d="M695.38,624a1.68,1.68,0,0,1-1.46-.86L687.05,611a1.68,1.68,0,0,1,.88-2.4l32.9-12.18a5.74,5.74,0,0,1,4.87,10.36l-29.48,17A1.68,1.68,0,0,1,695.38,624Zm-4.43-13,5.06,9,28-16.18a2.38,2.38,0,0,0-2-4.3Z" class="color262424 svgShape"></path><path fill="#ffffff" d="M689.78,637.62c-7.36,5.52-9.94,12.46-4.2,14.7s20.86-9.24,19.88-14S699.86,630.06,689.78,637.62Z" class="colorfff svgShape"></path><path fill="#262424" d="M687.3,654.29a6.38,6.38,0,0,1-2.33-.41,6.1,6.1,0,0,1-4.15-4.87c-0.52-3.79,2.53-8.68,7.95-12.74h0c5.55-4.16,10.15-5.6,13.69-4.26a7.65,7.65,0,0,1,4.65,6c0.71,3.43-3.44,7.53-6,9.67C697.93,650.36,691.94,654.29,687.3,654.29ZM690.79,639c-5,3.73-6.92,7.51-6.63,9.6,0,0.36.2,1.48,2,2.19,2.28,0.89,8-1.65,12.77-5.67,3.83-3.23,5-5.66,4.85-6.43a4.56,4.56,0,0,0-2.55-3.5c-2.32-.88-6,0.47-10.48,3.8h0Z" class="color262424 svgShape"></path><path fill="#ffffff" d="M679.56,613.13s7.42-7.28,16.52-2.94,9.66,28.14-5.88,28.42S679.56,613.13,679.56,613.13Z" class="colorfff svgShape"></path><path fill="#262424" d="M689.95,640.29a10.94,10.94,0,0,1-8.79-3.87c-6.24-7.41-3.37-22.95-3.25-23.6a1.68,1.68,0,0,1,.47-0.89c0.34-.33,8.38-8,18.42-3.26,6.25,3,8.43,12.6,6.87,19.8s-6.6,11.7-13.44,11.82h-0.28ZM681.12,614c-0.43,2.71-2,14.77,2.61,20.27a7.7,7.7,0,0,0,6.44,2.67c7.19-.13,9.49-5.8,10.22-9.17,1.43-6.59-.92-14.09-5-16.05C688.5,608.43,682.64,612.71,681.12,614Z" class="color262424 svgShape"></path><path fill="#ffffff" d="M671.44,612c-15.16,5.21-18.76,12.74-18.9,20.86s5.74,19.46,15.12,17.78,23.1-6,24.5-15.54S689.78,605.71,671.44,612Z" class="colorfff svgShape"></path><path fill="#262424" d="M665.82,652.49a12,12,0,0,1-7.87-3c-4.28-3.64-7.19-10.47-7.08-16.62,0.19-10.81,6.36-17.72,20-22.42h0c8.09-2.78,13.18-.54,16,1.82,6.73,5.59,7.81,16.88,6.9,23.11-1.62,11-16.9,15.34-25.86,16.95A12.17,12.17,0,0,1,665.82,652.49Zm12.16-40a18.56,18.56,0,0,0-6,1.12h0c-15.45,5.31-17.65,12.73-17.77,19.3-0.08,4.4,1.93,10.62,5.9,14a8.47,8.47,0,0,0,7.24,2.1c6.5-1.16,21.77-4.87,23.13-14.13,0.77-5.27-.09-15.37-5.72-20A10.32,10.32,0,0,0,678,612.48Zm-6.54-.47h0Z" class="color262424 svgShape"></path><path fill="#173753" d="M922.9,207a138.74,138.74,0,0,1-62.07,115.72h0c-0.85.71-28.13,23.63-33.11,46.72H740.32c-5-23.09-32.26-46-33.11-46.72h0A138.89,138.89,0,1,1,922.9,207Z" class="colorde9244 svgShape"></path><path fill="#262424" d="M790.79,371.67a1.72,1.72,0,0,1-1.46-.81c-0.1-.16-2.12-3.42-5.32-9-3.19,5.62-5.22,8.87-5.32,9a1.72,1.72,0,0,1-2.92-1.83c0.11-.18,2.53-4.07,6.26-10.71-14.35-25.78-44.86-86.55-44.86-136.92,0-9.19,3.12-29.45,14.91-40.36,6-5.6,13.56-8.09,22.31-7.41a22,22,0,0,1,9.61,3,22.05,22.05,0,0,1,9.61-3c8.75-.68,16.26,1.82,22.31,7.41,11.79,10.91,14.91,31.17,14.91,40.36,0,50.38-30.51,111.14-44.86,136.92,3.73,6.64,6.15,10.53,6.26,10.71A1.72,1.72,0,0,1,790.79,371.67ZM771.67,177a24.55,24.55,0,0,0-17.23,6.61c-10.92,10.1-13.8,29.17-13.8,37.84,0,48.45,28.81,106.91,43.38,133.38,14.57-26.47,43.39-84.93,43.39-133.38,0-8.67-2.88-27.73-13.8-37.84-5.32-4.92-11.95-7.11-19.71-6.51a18.18,18.18,0,0,0-6.7,1.85c8.74,7.26,13.32,20.82,12.82,33.67-0.52,13.4-6.8,22.07-16,22.07s-15.48-8.66-16-22.07c-0.5-12.85,4.08-26.4,12.82-33.67a18.18,18.18,0,0,0-6.7-1.85Q772.88,177,771.67,177ZM784,180.87c-8.45,6.36-13,19.52-12.55,31.57,0.35,9.07,3.83,18.76,12.55,18.76s12.2-9.69,12.55-18.76C797,200.38,792.47,187.23,784,180.87Z" class="color262424 svgShape"></path><path fill="#ffffff" d="M781.56,438.81h4.91A20.48,20.48,0,0,1,807,459.29v11.58a6.69,6.69,0,0,1-6.69,6.69h-32.5a6.69,6.69,0,0,1-6.69-6.69V459.29a20.48,20.48,0,0,1,20.48-20.48Z" transform="rotate(180 784.015 458.185)" class="colorfff svgShape"></path><path fill="#262424" d="M786.47,479.24h-4.91a22.18,22.18,0,0,1-22.16-22.16V445.5a8.38,8.38,0,0,1,8.37-8.37h32.5a8.38,8.38,0,0,1,8.37,8.37v11.58A22.18,22.18,0,0,1,786.47,479.24Zm-18.71-38.75a5,5,0,0,0-5,5v11.58a18.82,18.82,0,0,0,18.8,18.8h4.91a18.82,18.82,0,0,0,18.8-18.8V445.5a5,5,0,0,0-5-5h-32.5Z" class="color262424 svgShape"></path><rect width="111.62" height="94.78" x="728.2" y="363.4" fill="#ffffff" rx="6.69" ry="6.69" class="colorfff svgShape"></rect><path fill="#262424" d="M833.14,459.86H734.89a8.38,8.38,0,0,1-8.37-8.37V370.09a8.38,8.38,0,0,1,8.37-8.37h98.25a8.38,8.38,0,0,1,8.37,8.37V451.5A8.38,8.38,0,0,1,833.14,459.86Zm-98.25-94.78a5,5,0,0,0-5,5V451.5a5,5,0,0,0,5,5h98.25a5,5,0,0,0,5-5V370.09a5,5,0,0,0-5-5H734.89Z" class="color262424 svgShape"></path><path fill="#ffffff" d="M779.61,355c8.54,0,10.82,11.79,2.88,15l-54.8,21.93a7.72,7.72,0,0,1-9.41-3,6.94,6.94,0,0,1-.68-1.3,7.8,7.8,0,0,1,.68-7.07,7.67,7.67,0,0,1,3.64-3l54.8-21.93a7.76,7.76,0,0,1,2.88-.56h0Z" class="colorfff svgShape"></path><path fill="#262424" d="M724.79,394.12a9.37,9.37,0,0,1-7.93-4.36,8.42,8.42,0,0,1-.81-1.56,9.48,9.48,0,0,1,.82-8.61,9.31,9.31,0,0,1,4.43-3.67L776.1,354a9.39,9.39,0,0,1,3.51-.68,9.44,9.44,0,0,1,3.51,18.2l-54.8,21.93A9.44,9.44,0,0,1,724.79,394.12Zm54.81-37.46a6,6,0,0,0-2.26.44L722.54,379a6,6,0,0,0-2.84,2.36,6.12,6.12,0,0,0-.54,5.55,5.22,5.22,0,0,0,.51,1,6,6,0,0,0,7.4,2.4l54.8-21.93A6.08,6.08,0,0,0,779.61,356.66Z" class="color262424 svgShape"></path><rect width="143.06" height="15.52" x="712.48" y="391" fill="#ffffff" rx="5.37" ry="5.37" transform="rotate(-21.81 783.996 398.75)" class="colorfff svgShape"></rect><path fill="#262424" d="M723.49,432.6a7.07,7.07,0,0,1-6.56-4.43l-1.77-4.43a7.06,7.06,0,0,1,3.93-9.17l122.84-49.16a7.06,7.06,0,0,1,9.17,3.93l1.77,4.43a7.06,7.06,0,0,1-3.93,9.17h0L726.1,432.1A7,7,0,0,1,723.49,432.6Zm121.06-64.33a3.68,3.68,0,0,0-1.37.26L720.34,417.69a3.7,3.7,0,0,0-2.06,4.8l1.77,4.43a3.7,3.7,0,0,0,4.8,2.06l122.84-49.16a3.7,3.7,0,0,0,2.06-4.8L848,370.59A3.7,3.7,0,0,0,844.55,368.27Zm3.77,13.11h0Z" class="color262424 svgShape"></path><path fill="#ffffff" d="M846.11,420L732.29,465.11a7.76,7.76,0,0,1-10.09-4.32h0a7.76,7.76,0,0,1,4.32-10.09l113.81-45.07A7.76,7.76,0,0,1,850.43,410h0A7.76,7.76,0,0,1,846.11,420Z" class="colorfff svgShape"></path><path fill="#262424" d="M729.41,467.35a9.44,9.44,0,0,1-3.51-18.21l113.82-45.07a9.44,9.44,0,0,1,7,17.53h0L732.91,466.67A9.41,9.41,0,0,1,729.41,467.35Zm113.81-60.59a6.08,6.08,0,0,0-2.26.44L727.15,452.26a6.08,6.08,0,0,0,4.52,11.28l113.82-45.07A6.08,6.08,0,0,0,843.22,406.76ZM846.11,420h0Z" class="color262424 svgShape"></path><path fill="#ffffff" d="M851,450.61a7.81,7.81,0,0,1-4.86,7.22L825.57,466a7.76,7.76,0,0,1-2.88.56h0c-8.54,0-10.82-11.79-2.88-15l20.53-8.22a7.72,7.72,0,0,1,9.41,3,6.93,6.93,0,0,1,.68,1.3A7.74,7.74,0,0,1,851,450.61Z" class="colorfff svgShape"></path><path fill="#262424" d="M822.69,468.28a9.44,9.44,0,0,1-3.51-18.2l20.53-8.22a9.39,9.39,0,0,1,11.46,3.68,8.39,8.39,0,0,1,.81,1.56,9.48,9.48,0,0,1-5.24,12.28L826.2,467.6A9.39,9.39,0,0,1,822.69,468.28Zm20.54-23.74A6.07,6.07,0,0,0,841,445l-20.53,8.22a6.08,6.08,0,0,0,2.26,11.73,6,6,0,0,0,2.26-.44l20.54-8.22a6,6,0,0,0,2.84-2.37,6.09,6.09,0,0,0,.54-5.54,5.28,5.28,0,0,0-.51-1A6.06,6.06,0,0,0,843.23,444.54Z" class="color262424 svgShape"></path></svg></g></svg>