<svg id="SvgjsSvg1238" width="288" height="288" xmlns="http://www.w3.org/2000/svg" version="1.1" xmlns:xlink="http://www.w3.org/1999/xlink" xmlns:svgjs="http://svgjs.com/svgjs"><defs id="SvgjsDefs1239"></defs><g id="SvgjsG1240"><svg xmlns="http://www.w3.org/2000/svg" data-name="MAN LEFT ARM" viewBox="0 0 1600 1400" width="288" height="288"><path fill="#173753" d="M457.48,526.38c-4.78,11.55-13.26,16.48-23.51,17.52l-1,.1c-7.81.6-16.2,0.34-24.91-4.76-14.35-8.38-29.57-29.88-44.53-82.28-24-84.23-33-163.95,14.57-150,19.34,5.68,50.85,66.14,68.79,118.48,5.92,17.26,10.36,33.64,12.41,46.88C463.25,498.09,462.07,515.29,457.48,526.38Z" class="colorde9244 svgShape"></path><path fill="#173753" d="M532.14,394.44L490.85,504.69S478,525.82,460,537.19a45,45,0,0,1-16,6.55,30.77,30.77,0,0,1-10,.16,31.51,31.51,0,0,1-8.82-2.69,30.28,30.28,0,0,1-12.3-10.4c-4.74-7-6.85-16.37-5.68-27.83,2-20.11,14.12-46.59,39.69-77.5,12.86-15.54,29.11-32.21,49.21-49.76Z" class="colorde9244 svgShape"></path><path fill="#ffffff" d="M460,537.19a45,45,0,0,1-16,6.55,30.77,30.77,0,0,1-10,.16l-1,.1c-7.81.6-16.2,0.34-24.91-4.76a45.65,45.65,0,0,1,2.41-4.72c0.76-1.29,3.44-2.68,2.41-3.71-15.58-15.58,25.65-19.78,36.7-13.31a19.88,19.88,0,0,1,7.93,8.88A28.17,28.17,0,0,1,460,537.19Z" class="colorfff svgShape"></path><path fill="#262424" d="M493.21,500.37a2,2,0,0,1-1.87-2.7L529.65,395.4l-33.29-17.28c-44.57,39.11-74.42,78.18-84.11,110.11a2,2,0,0,1-3.83-1.16c7.06-23.27,27.76-61.73,86.33-112.86a2,2,0,0,1,2.24-.27l36.07,18.72a2,2,0,0,1,1,2.48L495.09,499.07A2,2,0,0,1,493.21,500.37Z" class="color262424 svgShape"></path><path fill="#262424" d="M519.7,412.86c-5.05,0-25.9-1.32-33.06-22.48a2,2,0,0,1,3.79-1.28c7.13,21.07,29.16,19.81,30.1,19.75a2,2,0,0,1,.28,4S520.39,412.86,519.7,412.86Z" class="color262424 svgShape"></path><path fill="#ffffff" d="M525,337.34c5.3,6.72-14.81,33.32-23.79,27.35S510.77,319.33,525,337.34Z" class="colorfff svgShape"></path><path fill="#262424" d="M504.13,367.54a7.16,7.16,0,0,1-4-1.19c-2.82-1.87-3.85-5.95-2.91-11.47,1.46-8.55,8.22-21.62,17.14-23.89,3.12-.79,7.77-0.55,12.24,5.11h0c4.32,5.48-2.92,17.13-8.51,23.18C513.07,364.68,508.15,367.54,504.13,367.54Zm12.79-32.88a6.53,6.53,0,0,0-1.62.21c-6.38,1.63-12.75,12.26-14.18,20.68-0.64,3.76-.2,6.55,1.18,7.47,2.54,1.69,7.69-.9,12.8-6.45,6.72-7.29,10-15.8,8.31-18C521.34,336,519.21,334.67,516.92,334.67Z" class="color262424 svgShape"></path><path fill="#ffffff" d="M553.69,367.9s-9.22,25.07-23.28,31.16-36-10.51-34.07-26.25,19.91-25.91,32.73-20.19c0,0-16.07-6.53-10-15.69s36.23,8.69,39,17.37S553.69,367.9,553.69,367.9Z" class="colorfff svgShape"></path><path fill="#262424" d="M523.89,402.33c-5.61,0-11.8-2.2-17.38-6.37-8.48-6.33-13.13-15.3-12.15-23.4a27.92,27.92,0,0,1,25.41-23.5,13,13,0,0,1-3.68-5.45,9,9,0,0,1,1.31-7.79c1.29-1.95,4.1-4.09,10.18-3.25,11.54,1.6,30,13.64,32.41,21.12a14.12,14.12,0,0,1-4.63,15.47c-1.52,3.92-10.51,25.83-24.15,31.73A18.35,18.35,0,0,1,523.89,402.33ZM521.26,353a22.67,22.67,0,0,0-11.07,3.05,23.1,23.1,0,0,0-11.85,17c-0.81,6.68,3.24,14.23,10.57,19.71,7,5.25,15,7,20.71,4.46,13.13-5.68,22.11-29.77,22.2-30a2,2,0,0,1,.74-1,10.14,10.14,0,0,0,3.62-11.34c-1.78-5.57-18.64-16.92-29.15-18.38-2.21-.3-5.1-0.29-6.29,1.5a5,5,0,0,0-.83,4.4c1.16,3.77,6.8,7,9.43,8.13l0.55,0.24a2,2,0,0,1-1.57,3.68l-0.47-.2A17.25,17.25,0,0,0,521.26,353Z" class="color262424 svgShape"></path><path fill="#ffffff" d="M1261.71,104V591a27.52,27.52,0,0,1-27.52,27.53h-795A27.52,27.52,0,0,1,411.71,591V104A27.52,27.52,0,0,1,439.23,76.5h795A27.52,27.52,0,0,1,1261.71,104Z" class="colorfff svgShape"></path><path fill="#262424" d="M1234.19,620.5h-795A29.56,29.56,0,0,1,409.71,591V104A29.55,29.55,0,0,1,439.23,74.5h795A29.55,29.55,0,0,1,1263.71,104V591A29.56,29.56,0,0,1,1234.19,620.5Zm-795-542A25.55,25.55,0,0,0,413.71,104V591a25.55,25.55,0,0,0,25.52,25.53h795A25.55,25.55,0,0,0,1259.71,591V104a25.55,25.55,0,0,0-25.52-25.52h-795Z" class="color262424 svgShape"></path><path fill="#173753" d="M1261.71,104v75.59h-850V104A27.52,27.52,0,0,1,439.23,76.5h795A27.52,27.52,0,0,1,1261.71,104Z" class="colorde9244 svgShape"></path><path fill="#173753" d="M1261.71,181.61h-850a2,2,0,0,1-2-2V104A29.55,29.55,0,0,1,439.23,74.5h795A29.55,29.55,0,0,1,1263.71,104v75.59A2,2,0,0,1,1261.71,181.61Zm-848-4h846V104a25.55,25.55,0,0,0-25.52-25.52h-795A25.55,25.55,0,0,0,413.71,104v73.59Z" class="colorde9244 svgShape"></path><rect width="178" height="24.67" x="472.09" y="121.83" fill="#ffffff" rx="12.33" ry="12.33" class="colorfff svgShape"></rect><path fill="#262424" d="M637.76,148.49H484.43a14.33,14.33,0,1,1,0-28.67H637.76A14.33,14.33,0,1,1,637.76,148.49ZM484.43,123.83a10.33,10.33,0,1,0,0,20.67H637.76a10.33,10.33,0,1,0,0-20.67H484.43Z" class="color262424 svgShape"></path><rect width="178" height="24.67" x="747.71" y="121.83" fill="#ffffff" rx="12.33" ry="12.33" class="colorfff svgShape"></rect><path fill="#262424" d="M913.37,148.49H760a14.33,14.33,0,0,1,0-28.67H913.37A14.33,14.33,0,0,1,913.37,148.49ZM760,123.83a10.33,10.33,0,0,0,0,20.67H913.37a10.33,10.33,0,0,0,0-20.67H760Z" class="color262424 svgShape"></path><rect width="178" height="24.67" x="1023.32" y="121.83" fill="#ffffff" rx="12.33" ry="12.33" class="colorfff svgShape"></rect><path fill="#262424" d="M1189 148.49H1035.65a14.33 14.33 0 010-28.67H1189A14.33 14.33 0 111189 148.49zm-153.33-24.67a10.33 10.33 0 000 20.67H1189a10.33 10.33 0 100-20.67H1035.65zM685.21 597a2 2 0 01-2-2V100a2 2 0 014 0V595A2 2 0 01685.21 597zM988.2 597a2 2 0 01-2-2V100a2 2 0 014 0V595A2 2 0 01988.2 597z" class="color262424 svgShape"></path><path fill="#262424" d="M1236.44,181.61H437a2,2,0,0,1,0-4h799.46A2,2,0,0,1,1236.44,181.61Z" class="color262424 svgShape"></path><path fill="#ffffff" d="M847.63,240s0,42,26,72.23H797.94c-26-30.19-26-72.23-26-72.23h75.71Z" class="colorfff svgShape"></path><path fill="#262424" d="M873.66,314.24H797.94a2,2,0,0,1-1.51-.69c-26.21-30.4-26.51-71.79-26.51-73.54a2,2,0,0,1,2-2h75.71a2,2,0,0,1,2,2c0,0.41.32,41.67,25.54,70.93A2,2,0,0,1,873.66,314.24Zm-74.79-4h70.56C848.64,283.7,846,250.51,845.68,242H774C774.39,250.56,777.37,284.74,798.87,310.24Z" class="color262424 svgShape"></path><path fill="#ffffff" d="M875.47,494.92s0,42,26,72.23H825.78c-26-30.19-26-72.23-26-72.23h75.71Z" class="colorfff svgShape"></path><path fill="#262424" d="M901.49,569.15H825.78a2,2,0,0,1-1.51-.69c-26.21-30.4-26.51-71.79-26.51-73.54a2,2,0,0,1,2-2h75.71a2,2,0,0,1,2,2c0,0.41.32,41.67,25.54,70.93A2,2,0,0,1,901.49,569.15Zm-74.79-4h70.56c-20.79-26.53-23.42-59.73-23.75-68.23H801.82C802.23,505.48,805.2,539.66,826.7,565.15Z" class="color262424 svgShape"></path><path fill="#ffffff" d="M1157.47,494.92s0,42,26,72.23h-75.71c-26-30.19-26-72.23-26-72.23h75.71Z" class="colorfff svgShape"></path><path fill="#262424" d="M1183.49,569.15h-75.71a2,2,0,0,1-1.51-.69c-26.21-30.4-26.51-71.79-26.51-73.54a2,2,0,0,1,2-2h75.71a2,2,0,0,1,2,2c0,0.41.32,41.67,25.54,70.93A2,2,0,0,1,1183.49,569.15Zm-74.79-4h70.56c-20.79-26.53-23.42-59.73-23.75-68.23h-71.7C1084.23,505.48,1087.2,539.66,1108.7,565.15Z" class="color262424 svgShape"></path><rect width="70.94" height="70.94" x="815.15" y="368.11" fill="#173753" transform="rotate(-6.62 851.181 403.83)" class="colorde9244 svgShape"></rect><path fill="#62d0b1" d="M574.4,240s0,42,26,72.23H524.71c-26-30.19-26-72.23-26-72.23H574.4Z" class="color88c0c2 svgShape"></path><path fill="#173753" d="M585.71,494.92s0,42,26,72.23H536c-26-30.19-26-72.23-26-72.23h75.71Z" class="colorde9244 svgShape"></path><rect width="70.94" height="70.94" x="525.4" y="368.11" fill="#ffffff" transform="rotate(-6.62 561.203 403.801)" class="colorfff svgShape"></rect><path fill="#262424" d="M529.73,444.9a2,2,0,0,1-2-1.77l-8.18-70.46a2,2,0,0,1,1.76-2.22l70.46-8.18A2,2,0,0,1,594,364l8.18,70.46a2,2,0,0,1-1.76,2.22L530,444.89h-0.23Zm-6-70.71,7.72,66.49L598,433l-7.72-66.49Z" class="color262424 svgShape"></path><rect width="70.94" height="70.94" x="1097.15" y="239.39" fill="#62d0b1" transform="rotate(-6.62 1133.349 274.943)" class="color87bfc1 svgShape"></rect><rect width="70.94" height="70.94" x="1097.15" y="360.61" fill="#ffffff" transform="rotate(-6.62 1133.27 396.291)" class="colorfff svgShape"></rect><path fill="#262424" d="M1101.48,437.4a2,2,0,0,1-2-1.77l-8.18-70.46a2,2,0,0,1,1.76-2.22l70.46-8.18a2,2,0,0,1,2.22,1.76l8.18,70.46a2,2,0,0,1-1.76,2.22l-70.46,8.18h-0.23Zm-6-70.71,7.72,66.49,66.49-7.72L1162,359Z" class="color262424 svgShape"></path><polygon fill="#ffffff" points="440.75 1163.36 451.89 1229.88 425.76 1232.95 408.35 1166.78 440.75 1163.36" class="colorfff svgShape"></polygon><path fill="#262424" d="M425.76,1235a2,2,0,0,1-1.93-1.49l-17.41-66.17a2,2,0,0,1,1.72-2.5l32.4-3.42a2,2,0,0,1,2.18,1.66l11.14,66.52a2,2,0,0,1-1.74,2.32L426,1234.94h-0.23Zm-14.88-66.43,16.38,62.24,22.32-2.62-10.48-62.59Z" class="color262424 svgShape"></path><path fill="#62d0b1" d="M557.52,1323.59v11.71H412.77s-0.47-6.11-.92-16.39c-0.9-20.22-1.94-54.21.75-91.79l46.2-7.4s39.65,41.26,74.93,73.37c3.66,3.33,7.52,6.58,11.58,9.66C553.1,1308.66,557.52,1316,557.52,1323.59Z" class="color88c0c2 svgShape"></path><path fill="#262424" d="M489.16,1293.81a2,2,0,0,1-1.44-.61c-31.38-32.53-45.51-59.55-45.65-59.82a2,2,0,0,1,3.55-1.84c0.14,0.26,14,26.8,45,58.88A2,2,0,0,1,489.16,1293.81Z" class="color262424 svgShape"></path><ellipse cx="435.69" cy="1281.69" fill="#ffffff" rx="12.85" ry="14.31" class="colorfff svgShape"></ellipse><path fill="#262424" d="M435.69,1298c-8.19,0-14.85-7.32-14.85-16.31s6.66-16.31,14.85-16.31,14.85,7.31,14.85,16.31S443.88,1298,435.69,1298Zm0-28.61c-6,0-10.85,5.52-10.85,12.31s4.87,12.31,10.85,12.31,10.85-5.52,10.85-12.31S441.67,1269.39,435.69,1269.39Z" class="color262424 svgShape"></path><path fill="#ffffff" d="M557.52,1323.59v11.71H412.77s-0.47-6.11-.92-16.39h76.41s4.89-34,45.46-25.82c3.66,3.33,7.52,6.58,11.58,9.66C553.1,1308.66,557.52,1316,557.52,1323.59Z" class="colorfff svgShape"></path><path fill="#262424" d="M557.52,1337.31H412.77a2,2,0,0,1-2-1.85c0-.06-0.48-6.26-0.92-16.45a2,2,0,0,1,2-2.09h74.77c0.94-4,4.16-14.14,13.69-20.87,8.6-6.06,20-7.72,33.81-4.91a2,2,0,0,1,.95.48c3.77,3.43,7.62,6.64,11.44,9.54,8.38,6.36,13,14.33,13,22.44v11.71A2,2,0,0,1,557.52,1337.31Zm-142.88-4H555.52v-9.71c0-6.83-4.06-13.67-11.42-19.25-3.78-2.87-7.58-6-11.3-9.4-12.47-2.43-22.62-1-30.17,4.37-10.48,7.39-12.36,19.76-12.38,19.88a2,2,0,0,1-2,1.72H413.95C414.22,1326.74,414.49,1331,414.64,1333.31Z" class="color262424 svgShape"></path><path fill="#62d0b1" d="M249,656.1s19.35,79.37,22,87,126.06,448,126.06,448l62.79-12.48L399.95,649.27s-5.24-54.37-69.67-53.43S249,656.1,249,656.1Z" class="color88c0c2 svgShape"></path><ellipse cx="403.11" cy="941.6" fill="#ffffff" rx="24.37" ry="34.86" transform="rotate(-7.6 403.01 941.355)" class="colorfff svgShape"></ellipse><path fill="#262424" d="M301.43,716.37a2,2,0,0,1-1.4-3.43l3.35-3.28a29.58,29.58,0,0,0,8.83-23.37l-2.47-33.46a2,2,0,1,1,4-.29L316.21,686a33.57,33.57,0,0,1-10,26.53l-3.35,3.28A2,2,0,0,1,301.43,716.37Z" class="color262424 svgShape"></path><path fill="#262424" d="M411.33,1171.62a2,2,0,0,1-1.94-1.53L285.29,657.38a2,2,0,1,1,3.89-.94l124.1,512.71a2,2,0,0,1-1.47,2.41A2,2,0,0,1,411.33,1171.62Z" class="color262424 svgShape"></path><path fill="#262424" d="M396.74,1174.78a2,2,0,0,1-.35-4l52.82-9.42a2,2,0,0,1,.7,3.94l-52.82,9.42A2,2,0,0,1,396.74,1174.78Z" class="color262424 svgShape"></path><polygon fill="#ffffff" points="192.48 1165.03 184.67 1232.02 158.71 1227.69 160.41 1159.29 192.48 1165.03" class="colorfff svgShape"></polygon><path fill="#262424" d="M184.67,1234l-0.33,0-26-4.32a2,2,0,0,1-1.67-2l1.69-68.41a2,2,0,0,1,2.35-1.92l32.07,5.74a2,2,0,0,1,1.63,2.2l-7.81,67A2,2,0,0,1,184.67,1234Zm-23.91-8,22.17,3.69,7.35-63-27.93-5Z" class="color262424 svgShape"></path><path fill="#62d0b1" d="M292.14,1323.59v11.71H147.4s-0.47-6.11-.92-16.39c-0.9-20.22-1.94-54.21.75-91.79l46.2-7.4s39.65,41.26,74.93,73.37c3.66,3.33,7.52,6.58,11.58,9.66C287.72,1308.66,292.14,1316,292.14,1323.59Z" class="color88c0c2 svgShape"></path><path fill="#262424" d="M223.78,1293.81a2,2,0,0,1-1.44-.61c-31.38-32.53-45.51-59.55-45.65-59.82a2,2,0,0,1,3.55-1.84c0.14,0.26,14,26.8,45,58.88A2,2,0,0,1,223.78,1293.81Z" class="color262424 svgShape"></path><ellipse cx="170.31" cy="1281.69" fill="#ffffff" rx="12.85" ry="14.31" class="colorfff svgShape"></ellipse><path fill="#262424" d="M170.31,1298c-8.19,0-14.85-7.32-14.85-16.31s6.66-16.31,14.85-16.31,14.85,7.31,14.85,16.31S178.5,1298,170.31,1298Zm0-28.61c-6,0-10.85,5.52-10.85,12.31s4.87,12.31,10.85,12.31,10.85-5.52,10.85-12.31S176.3,1269.39,170.31,1269.39Z" class="color262424 svgShape"></path><path fill="#ffffff" d="M292.14,1323.59v11.71H147.4s-0.47-6.11-.92-16.39h76.41s4.89-34,45.46-25.82c3.66,3.33,7.52,6.58,11.58,9.66C287.72,1308.66,292.14,1316,292.14,1323.59Z" class="colorfff svgShape"></path><path fill="#262424" d="M292.14,1337.31H147.4a2,2,0,0,1-2-1.85c0-.06-0.48-6.26-0.92-16.45a2,2,0,0,1,2-2.09h74.77c0.94-4,4.16-14.15,13.69-20.87,8.6-6.06,20-7.72,33.81-4.91a2,2,0,0,1,.95.48c3.77,3.43,7.62,6.64,11.44,9.54,8.38,6.36,13,14.33,13,22.44v11.71A2,2,0,0,1,292.14,1337.31Zm-142.88-4H290.14v-9.71c0-6.83-4.06-13.67-11.42-19.25-3.78-2.87-7.58-6-11.3-9.4-12.47-2.43-22.62-1-30.17,4.37-10.48,7.39-12.36,19.76-12.38,19.88a2,2,0,0,1-2,1.72H148.57C148.84,1326.74,149.11,1331,149.26,1333.31Z" class="color262424 svgShape"></path><path fill="#62d0b1" d="M151,632.54s-3.5,81.62-3.06,89.73-3.61,465.36-3.61,465.36l63.78,5.49L297.85,668s10.1-53.68-52-70.71S151,632.54,151,632.54Z" class="color88c0c2 svgShape"></path><path fill="#262424" d="M272.81,816.47l-0.34,0a2,2,0,0,1-1.63-2.31l24.74-142.75a2,2,0,1,1,3.94.68L274.78,814.81A2,2,0,0,1,272.81,816.47Z" class="color262424 svgShape"></path><ellipse cx="219.52" cy="949.65" fill="#ffffff" rx="34.86" ry="24.37" transform="rotate(-81.44 219.492 949.63)" class="colorfff svgShape"></ellipse><path fill="#262424" d="M185.11,705.1a2,2,0,0,1-.95-3.76,35.32,35.32,0,0,0,18.36-26.9l3.36-28a2,2,0,1,1,4,.48l-3.36,28a39.33,39.33,0,0,1-20.44,30A2,2,0,0,1,185.11,705.1Z" class="color262424 svgShape"></path><path fill="#262424" d="M164,1173h-0.09a2,2,0,0,1-1.91-2.09l23.51-527a2,2,0,1,1,4,.18L166,1171A2,2,0,0,1,164,1173Z" class="color262424 svgShape"></path><path fill="#262424" d="M202.41,1177.58H202.2l-53.35-5.66a2,2,0,0,1,.42-4l53.35,5.66A2,2,0,0,1,202.41,1177.58Z" class="color262424 svgShape"></path><path fill="#173753" d="M127,674.67h25.46V645.09a8.14,8.14,0,1,1,16.29,0v29.58H411.46s-12.78-145.47-4.87-238.62C414.45,343.54,378.07,307,378.07,307c-91.48-20.85-153.33-10.41-184.25-1.21A40.24,40.24,0,0,0,166,335.67C124.57,523.49,127,674.67,127,674.67Z" class="colorde9244 svgShape"></path><path fill="#262424" d="M402.78 529.54H402.7a2 2 0 01-1.91-2.08c.46-10.84.78-21.87 1.08-32.53.61-21 1.18-40.83 2.73-59 5.21-61.3-9.41-97.79-18.59-114.08a2 2 0 113.48-2c9.41 16.69 24.39 54 19.09 116.38-1.54 18.09-2.11 37.87-2.71 58.81-.31 10.68-.63 21.72-1.09 32.59A2 2 0 01402.78 529.54zM394.11 660.08h0l-215.32-1.53a2 2 0 01-2-2 2 2 0 012-2l215.32 1.53A2 2 0 01394.11 660.08z" class="color262424 svgShape"></path><path fill="#ffffff" d="M242.19,308.61a59.36,59.36,0,0,0,37.45,33.59c2.79-15.32,10.48-34.59,10.48-34.59,8.55,11.76,13.06,27.32,14.18,34.42,27.67-7.61,30.82-34.21,30.82-34.21-3.38-26.66-26.3-46.73-46-46.06C245.66,263.24,242.19,308.61,242.19,308.61Z" class="colorfff svgShape"></path><path fill="#262424" d="M279.64,344.2a2,2,0,0,1-.6-0.09,61.65,61.65,0,0,1-38.69-34.71,2,2,0,0,1-.16-0.94c0-.47,4.12-47.18,48.88-48.7,19.78-.67,44.35,18.8,48,47.81a2,2,0,0,1,0,.49c0,0.28-3.64,28-32.28,35.9a2,2,0,0,1-2.51-1.62,90.1,90.1,0,0,0-11.7-30.43c-2.32,6.25-7,19.58-9,30.65A2,2,0,0,1,279.64,344.2Zm-35.41-35.91a57.48,57.48,0,0,0,33.88,31.29c3.07-14.87,9.85-32,10.15-32.71a2,2,0,0,1,3.48-.43c8.19,11.27,12.57,25.42,14.12,33,23.08-7.52,26.86-29,27.24-31.66-3.42-26-26-44.68-43.89-44.06-17.28.59-30.09,8.3-38.1,22.94A62.1,62.1,0,0,0,244.23,308.29Z" class="color262424 svgShape"></path><path fill="#ffffff" d="M263.68,208l0.71,26.73,1.21,45.73c15.38,10.75,30.34,11.89,44.77,1l-2.11-21.24-3.2-32.18Z" class="colorfff svgShape"></path><path fill="#262424" d="M289.49,291.13q-12.14,0-25-9a2,2,0,0,1-.85-1.59l-1.92-72.46a2,2,0,0,1,2.87-1.85l41.38,20.09a2,2,0,0,1,1.12,1.6l5.31,53.42a2,2,0,0,1-.79,1.8C304.49,288.46,297.11,291.13,289.49,291.13Zm-21.91-11.7c14.62,9.9,28,10.28,40.7,1.18l-5.09-51.17-37.41-18.17Z" class="color262424 svgShape"></path><path fill="#ffffff" d="M464.25,369.6s4.25-26.06,4.25-32.86c0-5.34,9.43-20.81,13.48-27.21a4.5,4.5,0,0,1,5-1.92h0a4.51,4.51,0,0,1,3.24,5.06l-3,19L509.06,291a5.77,5.77,0,0,1,7.34-2.58h0a5.77,5.77,0,0,1,3.36,6.66l-6.22,25.84,6.7-15.24a5.17,5.17,0,0,1,7.87-2h0a5.17,5.17,0,0,1,2,3.74l2.23,30.13a19.35,19.35,0,0,1-2.43,10.91c-5.58,9.93-17.76,31.15-22.07,34.81C502.2,388,472,410,472,410Z" class="colorfff svgShape"></path><path fill="#262424" d="M472,412a2,2,0,0,1-2-1.62L462.28,370a2,2,0,0,1,0-.7c0-.26,4.22-26,4.22-32.54,0-5.36,7.5-18.34,13.79-28.27A6.51,6.51,0,0,1,492.21,313L491,320.25,507.3,290a7.77,7.77,0,0,1,14.4,5.5l-1.69,7a7.18,7.18,0,0,1,12.13,4.65l2.23,30.13a21.3,21.3,0,0,1-2.68,12c-7.95,14.15-18.31,31.77-22.52,35.36-5.66,4.81-34.72,26-36,26.86A2,2,0,0,1,472,412Zm-5.76-42.4,7.13,36.92c7.39-5.39,28.59-20.92,33.17-24.82,2.85-2.42,10.93-15.23,21.62-34.27a17.31,17.31,0,0,0,2.17-9.79l-2.23-30.13a3.17,3.17,0,0,0-6.07-1l-6.71,15.24a2,2,0,0,1-3.77-1.27l6.22-25.84a3.77,3.77,0,0,0-7-2.67L489,332.59a2,2,0,0,1-3.74-1.26l3-19a2.51,2.51,0,0,0-4.59-1.75c-8.13,12.83-13.17,22.85-13.17,26.14C470.49,343.27,466.81,366.3,466.28,369.57Z" class="color262424 svgShape"></path><path fill="#173753" d="M479.07,421.91S416.69,456.7,358.94,468.2a180.23,180.23,0,0,1-28.68,3.57c-10.11.36-20.84-1.33-31.78-4.51-57.75-16.79-121.19-75.21-127.6-93.69-9.63-27.76-4-49.57,14.45-58.74A37.19,37.19,0,0,1,218,315l118.3,57.07,129.17-6.8S488.89,381.12,479.07,421.91Z" class="colorde9244 svgShape"></path><path fill="#ffffff" d="M362,455.52a27.84,27.84,0,0,1-3,12.68,180.23,180.23,0,0,1-28.68,3.57c-10.11.36-20.84-1.33-31.78-4.51a27.87,27.87,0,0,1-2.58-11.74c0-16.68,14.8-30.21,33-30.21S362,438.84,362,455.52Z" class="colorfff svgShape"></path><path fill="#262424" d="M327.56,473.82a106.94,106.94,0,0,1-29.64-4.64c-56.25-16.35-121.82-74.45-128.94-95-9.91-28.56-4.14-51.44,15.44-61.18a39.39,39.39,0,0,1,34.44.15L336.71,370l128.66-6.77a2,2,0,0,1,1.23.34c1,0.68,24.45,17.12,14.42,58.78a2,2,0,0,1-1,1.28c-0.63.35-63.31,35.07-120.71,46.5a182.48,182.48,0,0,1-29,3.61Q329,473.82,327.56,473.82ZM201.28,313.15a33.76,33.76,0,0,0-15.06,3.47c-17.61,8.77-22.64,29.81-13.45,56.29,6.06,17.47,68,75.47,126.27,92.43,11.27,3.28,21.75,4.77,31.15,4.43a178.56,178.56,0,0,0,28.36-3.53c53.36-10.63,111.45-41.66,118.78-45.65,8.1-35-9.25-50.73-12.47-53.29l-128.44,6.76a2,2,0,0,1-1-.2l-118.3-57.07A36.56,36.56,0,0,0,201.28,313.15ZM479.07,421.91h0Z" class="color262424 svgShape"></path><path fill="#262424" d="M459.43,427.31a2,2,0,0,1-1.94-2.49c8.68-34.34-8.7-51.14-8.87-51.31a2,2,0,0,1,2.74-2.92c0.79,0.74,19.26,18.6,10,55.2A2,2,0,0,1,459.43,427.31Z" class="color262424 svgShape"></path><circle cx="472.04" cy="414.21" r="4.25" fill="#ffffff" class="colorfff svgShape"></circle><path fill="#262424" d="M472,420.46a6.25,6.25,0,1,1,6.25-6.25A6.26,6.26,0,0,1,472,420.46Zm0-8.5a2.25,2.25,0,1,0,2.25,2.25A2.25,2.25,0,0,0,472,412Z" class="color262424 svgShape"></path><path fill="#ffffff" d="M342.49,213.15C342,235.25,337.71,262,311.09,260c-31.65-2.39-53.61-22.9-56.25-52.64s9.76-47.6,45.67-47a54.84,54.84,0,0,1,9.1.89c20.94,3.91,32.59,20.09,32.89,40.13C342.55,205,342.59,209,342.49,213.15Z" class="colorfff svgShape"></path><path fill="#262424" d="M313.83,262.07q-1.42,0-2.89-.11c-12.83-1-24.58-5-34-11.54a2,2,0,1,1,2.29-3.28c8.81,6.17,19.87,9.91,32,10.83,7.45,0.56,13.26-1.16,17.78-5.26,9.7-8.8,11.19-26.82,11.47-39.6,0.1-4.17.06-8.24,0-11.73-0.29-20-12.27-34.65-31.25-38.19a2,2,0,1,1,.73-3.93c21,3.91,34.2,20,34.52,42.06,0.05,3.53.1,7.64,0,11.88-0.3,13.52-1.94,32.63-12.79,42.47C327,259.92,321,262.07,313.83,262.07Z" class="color262424 svgShape"></path><path fill="#262424" d="M246,213.65a91.7,91.7,0,0,0,11.08,11.43l15.85-.26,2.48-11.43s10-1.23,11.51-8.15a3.92,3.92,0,0,0,.09-0.48c0.35-2.25,1.63-12.29-1.08-27.5,0,0,24.9,8.72,38.1,9.07,4.75,0.13,10.11-2.12,15-5.05,9.85-5.87,17.49-23.28,14.81-34.43l-0.05-.21c-4.12-16.33-11.84-4.18-11.84-4.18S338.45,129.31,330,129s-12.77,12.43-12.77,12.43a131.87,131.87,0,0,0-49.05,1.81c-31.88,7.47-22.1,29.07-22.1,29.07S223,181.82,246,213.65Z" class="color262424 svgShape"></path><path fill="#ffffff" d="M269.34,223.39c0.37-12.54-9.28-23.4-21.81-23.85a20.89,20.89,0,0,0-7.82,1.18c-15.07,5.37-8.2,40.91,29.26,35.2Z" class="colorfff svgShape"></path><path fill="#262424" d="M261.27,238.53c-17.36,0-27.65-9.58-30.33-20.22-2.22-8.82,1.18-17,8.09-19.47a22.87,22.87,0,0,1,8.57-1.3c13.5,0.48,24.15,12.1,23.74,25.9a2,2,0,1,1-4-.12c0.34-11.61-8.58-21.38-19.88-21.79a19,19,0,0,0-7.08,1.07c-4.93,1.76-7.27,7.95-5.56,14.72,2.44,9.67,12.77,19.83,33.85,16.62a2,2,0,1,1,.6,4A53.14,53.14,0,0,1,261.27,238.53Z" class="color262424 svgShape"></path><polygon fill="#ffffff" points="1080.27 1168.92 1047.39 1256 1018.03 1243.88 1037.13 1158.09 1080.27 1168.92" class="colorfff svgShape"></polygon><path fill="#262424" d="M1047.39,1258a2,2,0,0,1-.76-0.15l-29.36-12.12a2,2,0,0,1-1.19-2.28l19.1-85.8a2,2,0,0,1,2.44-1.5l43.14,10.84a2,2,0,0,1,1.38,2.65l-32.88,87.08A2,2,0,0,1,1047.39,1258Zm-27-15.33,25.9,10.69,31.36-83.05-39-9.79Z" class="color262424 svgShape"></path><path fill="#62d0b1" d="M925.71,1322.31v13h159.64s0-6.13-.52-15.78c-1.25-23.09-5.49-66.38-19.9-94.2H1006s-15.64,46.12-65.93,73.07a27.22,27.22,0,0,0-14.21,21.13A27.65,27.65,0,0,0,925.71,1322.31Z" class="color87bfc1 svgShape"></path><path fill="#ffffff" d="M925.71,1322.31v13h159.64s0-6.13-.52-15.78h-159A27.65,27.65,0,0,0,925.71,1322.31Z" class="colorfff svgShape"></path><path fill="#262424" d="M1085.35,1337.31H925.71a2,2,0,0,1-2-2v-13a29.5,29.5,0,0,1,.16-3,2,2,0,0,1,2-1.8h159a2,2,0,0,1,2,1.89c0.52,9.59.52,15.83,0.52,15.89A2,2,0,0,1,1085.35,1337.31Zm-157.64-4h155.62c0-2.28-.13-6.4-0.4-11.78H927.72c0,0.27,0,.53,0,0.79v11Z" class="color262424 svgShape"></path><polygon fill="#62d0b1" points="1038 1112.13 1135.21 629.69 1273.49 629.69 1258.2 758.9 1106.95 1120.2 1038 1112.13" class="color87bfc1 svgShape"></polygon><path fill="#262424" d="M1139.78,690.21h-8.67a2,2,0,0,1,0-4h8.67a27.37,27.37,0,0,0,26.95-22.51l2.15-11.85a2,2,0,1,1,3.94.71l-2.15,11.85A31.37,31.37,0,0,1,1139.78,690.21Z" class="color262424 svgShape"></path><ellipse cx="1123.83" cy="863.09" fill="#ffffff" rx="48.73" ry="32.52" transform="rotate(-77.27 1123.74 863.091)" class="colorfff svgShape"></ellipse><path fill="#262424" d="M1098.52,1090.85a2,2,0,0,1-1.85-2.77l153.49-369.32V632.34a2,2,0,0,1,4,0v86.83a2,2,0,0,1-.15.77l-153.65,369.68A2,2,0,0,1,1098.52,1090.85Z" class="color262424 svgShape"></path><path fill="#262424" d="M1252.17,721.17a2,2,0,0,1-1.37-.54l-9.85-9.27a42.42,42.42,0,0,1-13.3-30.77V637.3a2,2,0,0,1,4,0v43.27a38.41,38.41,0,0,0,12,27.86l9.85,9.27A2,2,0,0,1,1252.17,721.17Z" class="color262424 svgShape"></path><path fill="#173753" d="M1027.86,1167.28l62.9,11.47a10.09,10.09,0,0,0,11.25-6.36l17.39-46a10.09,10.09,0,0,0-7.63-13.49l-71.6-13.06a10.09,10.09,0,0,0-11.74,8.12l-8.69,47.63A10.09,10.09,0,0,0,1027.86,1167.28Z" class="colorde9244 svgShape"></path><polygon fill="#ffffff" points="1360.88 1162.07 1380.02 1253.16 1410.89 1245.68 1405.17 1157.97 1360.88 1162.07" class="colorfff svgShape"></polygon><path fill="#262424" d="M1380,1255.16a2,2,0,0,1-2-1.59l-19.14-91.09a2,2,0,0,1,1.77-2.4L1405,1156a2,2,0,0,1,2.18,1.86l5.72,87.71a2,2,0,0,1-1.53,2.07l-30.87,7.48A2,2,0,0,1,1380,1255.16Zm-16.72-91.31,18.26,86.88,27.23-6.6-5.47-84Z" class="color262424 svgShape"></path><path fill="#62d0b1" d="M1281.06,1322.31v13H1440.7s0-6.13-.52-15.78c-1.25-23.09-5.49-66.38-19.9-94.2h-58.93s-15.64,46.12-65.93,73.07a27.22,27.22,0,0,0-14.21,21.13A27.65,27.65,0,0,0,1281.06,1322.31Z" class="color87bfc1 svgShape"></path><path fill="#ffffff" d="M1281.06,1322.31v13H1440.7s0-6.13-.52-15.78h-159A27.65,27.65,0,0,0,1281.06,1322.31Z" class="colorfff svgShape"></path><path fill="#262424" d="M1440.7,1337.31H1281.06a2,2,0,0,1-2-2v-13a29.5,29.5,0,0,1,.16-3,2,2,0,0,1,2-1.8h159a2,2,0,0,1,2,1.89c0.52,9.59.52,15.83,0.52,15.89A2,2,0,0,1,1440.7,1337.31Zm-157.64-4h155.62c0-2.28-.13-6.4-0.4-11.78H1283.07c0,0.27,0,.53,0,0.79v11Z" class="color262424 svgShape"></path><path fill="#62d0b1" d="M1413.59,1142L1383,646.29a44.51,44.51,0,0,0-48.24-41.61l-26.12,2.25c-32.94,2.84-59.42-7.4-63.54,25.4l2.59,120,104.53,388.52Z" class="color87bfc1 svgShape"></path><path fill="#262424" d="M1247.25 733a2 2 0 01-2-2l-2-93.71a2 2 0 012-2 2 2 0 012 2l2 93.71a2 2 0 01-2 2h0zM1378.5 709.88l-.3 0-8.57-1.3A31.37 31.37 0 011343 678.43l-.35-12a2 2 0 014-.12l.35 12a27.37 27.37 0 0023.27 26.29l8.57 1.3A2 2 0 011378.5 709.88z" class="color262424 svgShape"></path><ellipse cx="1324.3" cy="882.88" fill="#ffffff" rx="32.52" ry="48.73" transform="rotate(-4.12 1324.072 882.75)" class="colorfff svgShape"></ellipse><path fill="#262424" d="M1402.08,1127.64a2,2,0,0,1-2-1.89L1376.5,708a2,2,0,0,1,4-.22l23.58,417.76a2,2,0,0,1-1.88,2.11h-0.11Z" class="color262424 svgShape"></path><path fill="#173753" d="M1418.39,1198.79l-63.92,1.43a10.09,10.09,0,0,1-10.11-8.05l-9.93-48.2a10.09,10.09,0,0,1,9.66-12.13l72.76-1.63a10.09,10.09,0,0,1,10.32,9.86l1.08,48.4A10.09,10.09,0,0,1,1418.39,1198.79Z" class="colorde9244 svgShape"></path><path fill="#ffffff" d="M1086.11,436.43l-64.2,1.62a19.71,19.71,0,0,1-17.74-10c-21.26-38-35-139.21-35-139.21s-17-10.18-15.5-28.59-20.5-29.91-16-36.91,22.25-15.75,28.5-15,16.67,21.1,17,21.73l-5.91-17.93a5.54,5.54,0,0,1,4.49-7.22,6.62,6.62,0,0,1,.76,0,5.53,5.53,0,0,1,5.1,3.37c3.11,7.32,9.5,22.88,10.07,28.35,0.75,7.25,0,18.75,0,18.75l8.86-13.87a5.14,5.14,0,0,1,9.47,2.77,5.07,5.07,0,0,1-.44,2.07l-15.89,36,48.12,91.38,20.38-3.88Z" class="colorfff svgShape"></path><path fill="#262424" d="M1021.38,440.05a21.63,21.63,0,0,1-19-11.06c-20.37-36.44-33.57-128.17-35.07-139-3.57-2.41-17-12.7-15.64-29.94,0.77-9.5-5.39-17.21-10.35-23.4-4.35-5.44-8.1-10.13-5.34-14.42,5-7.84,23.48-16.74,30.42-15.9,2.94,0.35,6.33,3.75,9.42,7.86l-0.48-1.44a7.54,7.54,0,0,1,6.11-9.83,8.72,8.72,0,0,1,1-.07,7.53,7.53,0,0,1,6.94,4.59c3.56,8.39,9.63,23.3,10.22,28.92A101.41,101.41,0,0,1,1000,248l4.88-7.63a7.14,7.14,0,0,1,12.54,6.73l-15.5,35.14,47,89.22,18.93-3.61a2,2,0,0,1,2.31,1.45l17.9,66.62a2,2,0,0,1-1.88,2.52L1022,440h-0.58Zm-56.06-229.8c-6,0-22,8.07-25.93,14.13-1.21,1.88,1.71,5.53,5.1,9.76,5.11,6.39,12.12,15.15,11.21,26.23-1.38,17,14.38,26.62,14.53,26.71a2,2,0,0,1,1,1.45c0.14,1,13.89,101.23,34.72,138.5a17.59,17.59,0,0,0,15.94,9l61.66-1.56-16.76-62.37-18.56,3.54a2,2,0,0,1-2.14-1l-48.12-91.38a2,2,0,0,1-.06-1.74l15.89-36a3.1,3.1,0,0,0,.27-1.26,3.14,3.14,0,0,0-5.79-1.69l-8.86,13.87a2,2,0,0,1-3.68-1.21c0-.11.73-11.42,0-18.41-0.38-3.67-4.09-14.05-9.92-27.77a3.57,3.57,0,0,0-3.79-2.12,3.54,3.54,0,0,0-2.82,4.61l5.91,17.93a2,2,0,0,1-3.68,1.53c-4.27-8.39-12-20.24-15.45-20.65A5.38,5.38,0,0,0,965.32,210.26Z" class="color262424 svgShape"></path><path fill="#173753" d="M1175.35,333.22l-143.08,31.49s-16.56,52.6,16.44,85.09l114-7.23Z" class="colorde9244 svgShape"></path><path fill="#262424" d="M1061.83 444.57a2 2 0 01-1.67-.9c-22.32-33.75-14.63-69-14.29-70.43a2 2 0 013.9.89c-.08.35-7.62 35.06 13.73 67.34A2 2 0 011061.83 444.57zM1336.9 187.18c-18.22 4.17-9.76 42-5.42 54.31s-9.24 43.2 10.86 57.47-27.57 51.18 20.39 104.6c37 41.17 114.25 26.93 110.11-11.92s-60.81-65.57-64.14-101.16c-2.12-22.65 12.11-52.62-22.1-69.78C1361.05 207.9 1351.28 183.89 1336.9 187.18z" class="color262424 svgShape"></path><path fill="#173753" d="M1123.83,637.3s132.37,22.37,272.24-5L1359.45,474l6.64-134.66-104.38-11.68-86.36,5.53s-32.05,59.46-32.05,78.34S1164.06,474,1164.06,474Z" class="colorde9244 svgShape"></path><path fill="#262424" d="M1259.75 633.31c-65.6 0-122-5.91-122.92-6a2 2 0 01.43-4c1.49.16 150.13 15.74 245.38-4a2 2 0 11.81 3.92C1346.33 630.94 1301.2 633.31 1259.75 633.31zM1159 464.89a2 2 0 01-1.84-1.21c-7.26-16.8-15.92-39.47-15.92-52.12 0-15.47 20.31-56.28 29-73.11a2 2 0 113.55 1.84c-6.71 12.93-28.59 56.27-28.59 71.27 0 12.6 9.77 37.07 15.59 50.54A2 2 0 011159 464.89z" class="color262424 svgShape"></path><path fill="#ffffff" d="M1259.55,309.69c-22.89-1.7-37.55,15.66-39.07,34.35s19.08,27.13,19.08,27.13,7.91-19.79,15.11-21.42,15.06,23.95,15.06,23.95,24.79-5.73,29.21-30S1279.84,311.19,1259.55,309.69Z" class="colorfff svgShape"></path><path fill="#262424" d="M1269.74,375.69a2,2,0,0,1-1.91-1.41c-3.46-11.26-9.52-23.29-12.71-22.58-4.5,1-10.79,12.94-13.69,20.22a2,2,0,0,1-2.62,1.11c-0.22-.09-21.92-9.23-20.31-29.14,1.53-18.91,16.5-38,41.21-36.18,10,0.74,28,3.67,36.76,15,4.47,5.78,6,12.94,4.45,21.29-4.6,25.31-30.47,31.56-30.73,31.62A2,2,0,0,1,1269.74,375.69Zm-14.42-28c7.2,0,13.3,16.1,15.75,23.57,5.58-1.78,22.42-8.67,25.92-27.94,1.31-7.18.07-13.28-3.68-18.13-7.84-10.13-24.6-12.8-33.89-13.49-22.18-1.65-35.55,15.53-36.92,32.52-1.12,13.89,11.31,21.77,16.06,24.25,2.34-5.4,8.91-19.12,15.7-20.66A4.86,4.86,0,0,1,1255.32,347.67Z" class="color262424 svgShape"></path><path fill="#ffffff" d="M1247.21,281.1l-4.9,47.34s6.9,13.49,18.16,14,22.16-11.6,22.16-11.6v-52.6Z" class="colorfff svgShape"></path><path fill="#262424" d="M1261.2,344.48l-0.83,0c-12.28-.59-19.54-14.52-19.85-15.11a2,2,0,0,1-.21-1.12l4.9-47.34a2,2,0,0,1,1.83-1.79l35.41-2.83a2,2,0,0,1,2.16,2v52.6a2,2,0,0,1-.51,1.34C1283.65,332.71,1273,344.48,1261.2,344.48ZM1244.36,328c1.33,2.32,7.4,12,16.2,12.45s17.86-8.14,20.06-10.4V280.43L1249,283Z" class="color262424 svgShape"></path><path fill="#ffffff" d="M1369.09,350.87s16.41,2.27,22.12,6.44c13,9.5,87.5,151,80.5,183s-83,112-83,112a20.36,20.36,0,0,1,9.5,6.5c4,5,6,18,6,18s14.5-5,16.5-1.5-18.5,33.5-33,30-30.5-30-33.5-41,61-134,61-134-53.5-74.5-72.5-119.5S1350.47,350.43,1369.09,350.87Z" class="colorfff svgShape"></path><path fill="#262424" d="M1390.21,707.6a12.65,12.65,0,0,1-3-.35c-15.58-3.76-31.93-31.31-35-42.42-0.57-2.08-2.07-7.6,29.51-72.53,13.82-28.42,28.1-56.08,31.08-61.83-6.43-9.05-54.33-77-72-118.89-10.76-25.49-6.48-40.46-1-48.52,7.35-10.8,20-14.42,29.27-14.2l0.23,0c0.69,0.1,17,2.39,23,6.8,6.95,5.07,29.1,43.46,48.38,83.82,14.1,29.52,37.12,81.92,32.9,101.23-6.48,29.61-69.11,97.6-81.49,110.81a22.33,22.33,0,0,1,7.6,6c3.25,4.06,5.21,12.52,6,16.63,6.07-1.89,14.5-3.68,16.67.13,1.86,3.25-3.95,11.6-6.53,15C1412.51,693.87,1401.28,707.6,1390.21,707.6Zm-21.88-354.74c-8.2,0-18.89,3.25-25.15,12.46-7.06,10.38-6.59,25.85,1.38,44.71,18.7,44.28,71.75,118.37,72.28,119.11a2,2,0,0,1,.15,2.09c-0.16.31-16.17,31.1-31.6,62.83-28.69,59-29.63,68.27-29.24,69.72,2.76,10.12,18.12,36.22,32,39.58,4.88,1.18,10.58-2.44,14.49-5.69,8.9-7.39,15.79-18.66,16.16-21.46-1.44-.7-7.93.41-14,2.49a2,2,0,0,1-2.63-1.59c-0.54-3.47-2.58-13.3-5.58-17.06a18.55,18.55,0,0,0-8.47-5.82,2,2,0,0,1-.92-3.31c0.76-.8,75.7-80,82.5-111,2.86-13.05-9.33-49.93-32.6-98.65-20.11-42.09-41.46-78.17-47.12-82.31-4.31-3.15-16.58-5.42-21.1-6.06h-0.61Zm50.52,323.08h0Z" class="color262424 svgShape"></path><path fill="#173753" d="M1366.09,339.37c20.48,0.82,40.62,19.94,65.62,68.44s26.5,52.5,26.5,52.5l-76.5,35s-44.5-70-49.5-95S1330,337.93,1366.09,339.37Z" class="colorde9244 svgShape"></path><path fill="#262424" d="M1356.94 455.85a2 2 0 01-1.74-1c-14.53-25.79-22.93-44-25-54.13-4.55-22.76-2.3-50.48 17.68-60a2 2 0 111.72 3.61c-17.92 8.56-19.54 35.32-15.48 55.64 1.92 9.57 10.39 27.88 24.52 53A2 2 0 011356.94 455.85zM1380.21 480.31a2 2 0 01-.81-3.83l64.5-28.5a2 2 0 011.62 3.66l-64.5 28.5A2 2 0 011380.21 480.31z" class="color262424 svgShape"></path><path fill="#ffffff" d="M1319.29,194.62l6.8-1.1a6.05,6.05,0,0,1,5.73,2.22,20.38,20.38,0,0,1,4.1,8.18c0.75,3.7-.65,7.21-1.85,9.38a6,6,0,0,1-3.64,2.85l-7.58,2.14a6.07,6.07,0,0,1-7.7-5.36l-0.94-11.82A6.07,6.07,0,0,1,1319.29,194.62Z" class="colorfff svgShape"></path><path fill="#262424" d="M1321.19,220.51a8.08,8.08,0,0,1-8-7.44l-0.94-11.82a8.12,8.12,0,0,1,6.76-8.61h0l6.79-1.1a8.06,8.06,0,0,1,7.62,3,22.46,22.46,0,0,1,4.49,9,16,16,0,0,1-2.06,10.75,7.94,7.94,0,0,1-4.84,3.8l-7.58,2.14A8.09,8.09,0,0,1,1321.19,220.51Zm-1.58-23.92a4.1,4.1,0,0,0-3.41,4.34l0.94,11.82a4.07,4.07,0,0,0,5.17,3.6l7.58-2.14a4,4,0,0,0,2.43-1.89,12.1,12.1,0,0,0,1.64-8,18.51,18.51,0,0,0-3.71-7.34,4.06,4.06,0,0,0-3.84-1.48Z" class="color262424 svgShape"></path><path fill="#ffffff" d="M1219.08,243.8c-5.09,22-2.72,49.71,23.64,56.6,19.38,5.06,47.36-11.92,57.45-40.65s12.26-55.21-23.38-63.66a88.4,88.4,0,0,0-11.6-1.77c-21.69-1.41-30-1.84-43.14,37.81C1220.88,235.64,1220,239.65,1219.08,243.8Z" class="colorfff svgShape"></path><path fill="#262424" d="M1248.92,303.16a26.34,26.34,0,0,1-6.71-.83c-26.93-7-30.61-35.08-25.08-59l0.36-1.57c0.83-3.66,1.62-7.12,2.66-10.27,13.67-41.22,22.88-40.63,45.17-39.18a2,2,0,1,1-.26,4c-21.25-1.38-28.42-1.85-41.11,36.44-1,3-1.75,6.33-2.56,9.9l-0.36,1.58c-2.48,10.71-8.21,46.27,22.19,54.21,6,1.58,13.69.43,24.09-3.6a2,2,0,1,1,1.45,3.73C1260.82,301.67,1254.43,303.16,1248.92,303.16Z" class="color262424 svgShape"></path><path fill="#262424" d="M1289.3,260.86a22.2,22.2,0,0,1-7.79-21.33c0.45-2.67,1.33-6.19,1.61-9.54-20.12,10.8-51.53,11.1-65,10.65a10.11,10.11,0,0,1-9.49-7.08c-7.46-26,23-61.09,50.33-51.29,38.39-11.47,69.84,16.24,66.42,44.4C1321.55,257.88,1296.93,267.41,1289.3,260.86Z" class="color262424 svgShape"></path><path fill="#ffffff" d="M1290.84,258.38s18.44-10.54,32-1.43-2.19,42.51-37.79,27.43Z" class="colorfff svgShape"></path><path fill="#262424" d="M1302.2,290.19a46.13,46.13,0,0,1-17.94-4,2,2,0,0,1,1.56-3.68c20.06,8.49,32.85,1,37.7-7.92,3.4-6.29,2.65-13-1.8-16-12.34-8.29-29.71,1.41-29.88,1.51a2,2,0,0,1-2-3.47c0.8-.46,19.69-11,34.1-1.36,6.2,4.16,7.49,13.09,3.09,21.23C1322.83,284.28,1314.11,290.19,1302.2,290.19Z" class="color262424 svgShape"></path><circle cx="1023.32" cy="728.19" r="12.99" fill="#173753" class="colorde9244 svgShape"></circle><circle cx="527.48" cy="1046.32" r="12.99" fill="#62d0b1" class="color88c0c2 svgShape"></circle><path fill="#262424" d="M508.87 709.61a2 2 0 01-2-2V694a2 2 0 014 0v13.57A2 2 0 01508.87 709.61zM529.34 716.51H515.77a2 2 0 010-4h13.57A2 2 0 01529.34 716.51zM508.87 737a2 2 0 01-2-2V721.41a2 2 0 014 0V735A2 2 0 01508.87 737zM502 716.51H488.41a2 2 0 110-4H502A2 2 0 01502 716.51zM937.1 1144.35a2 2 0 01-2-2v-11.58a2 2 0 014 0v11.58A2 2 0 01937.1 1144.35zM954.56 1150.24H943a2 2 0 010-4h11.58A2 2 0 01954.56 1150.24zM937.1 1167.69a2 2 0 01-2-2v-11.58a2 2 0 014 0v11.58A2 2 0 01937.1 1167.69zM931.21 1150.24H919.64a2 2 0 010-4h11.58A2 2 0 11931.21 1150.24z" class="color262424 svgShape"></path></svg></g></svg>